<?xml version="1.0" encoding="utf-8"?>
<!-- Generator: Adobe Illustrator 23.0.1, SVG Export Plug-In . SVG Version: 6.00 Build 0)  -->
<svg version="1.1" id="Layer_1" xmlns="http://www.w3.org/2000/svg" xmlns:xlink="http://www.w3.org/1999/xlink" x="0px" y="0px"
	 viewBox="0 0 478.18 416.64" style="enable-background:new 0 0 478.18 416.64;" xml:space="preserve">
<style type="text/css">
	.st0{fill:#010101;}
	.st1{fill:#D7D7D7;}
	.st2{fill:#FFFFFF;}
</style>
<g>
	<path class="st0" d="M68.9,289.07l0.94,3.78c-4.71,8.88-9.2,16.36-13.47,22.43c-4.27,6.07-8.69,11.03-13.25,14.87
		c-4.56,3.84-9.27,6.36-14.12,7.57c-4.19,1.05-8,1.11-11.42,0.19c-3.42-0.92-6.3-2.79-8.63-5.6c-2.33-2.82-4.04-6.42-5.14-10.8
		c-0.86-3.45-1.22-7.25-1.08-11.38c0.14-4.14,0.77-8.43,1.88-12.89c1.11-4.46,2.67-9.17,4.67-14.12c2-4.95,4.48-10.25,7.44-15.89
		c3.08-5.84,6.25-11.01,9.54-15.52c3.28-4.51,6.37-8.17,9.25-10.99c2.88-2.82,5.65-5.08,8.29-6.77c2.65-1.69,4.92-2.77,6.82-3.25
		c1.94-0.48,3.7-0.43,5.29,0.16c1.59,0.59,2.98,1.69,4.16,3.29c1.18,1.6,2.06,3.56,2.65,5.89c1.09,4.38,0.82,9.63-0.83,15.75
		c-1.65,6.12-4.07,12.24-7.29,18.35c-3.21,6.12-6.45,11.26-9.71,15.44c-3.26,4.17-5.79,6.48-7.57,6.93c-1.2,0.3-2.44,0.1-3.7-0.59
		c-1.27-0.69-2.05-1.64-2.35-2.84c-0.55-2.21-0.05-5.18,1.51-8.91c1.56-3.73,3.4-7.25,5.52-10.56c2.12-3.31,3.45-5.04,3.99-5.17
		c0.27-0.07,0.44,0.01,0.49,0.25c0.09,0.35,0.03,1-0.16,1.96c-0.19,0.96-0.27,1.53-0.22,1.72c0.08,0.31,0.23,0.44,0.47,0.38
		c0.66-0.16,2.12-2.4,4.38-6.72c2.26-4.31,4.17-8.92,5.73-13.82c1.56-4.9,2-8.71,1.32-11.42c-0.28-1.13-0.74-1.93-1.37-2.41
		c-0.64-0.48-1.44-0.6-2.41-0.36c-2.72,0.68-6.29,3.91-10.72,9.69c-4.43,5.78-8.69,12.8-12.79,21.06c-4.1,8.26-7.18,16.5-9.25,24.72
		c-2.07,8.22-2.41,15.09-1.04,20.6c0.79,3.18,1.93,5.72,3.42,7.62c1.48,1.9,3.29,3.2,5.42,3.9c2.13,0.7,4.5,0.73,7.1,0.08
		c5.62-1.4,11.46-5.19,17.5-11.35C56.22,308.17,62.46,299.75,68.9,289.07z"/>
	<path class="st0" d="M94.85,278.63c-3.77,8.85-6.72,15.22-8.86,19.09c-2.15,3.87-4.15,6.04-6.01,6.51
		c-1.47,0.37-2.98,0.1-4.53-0.82c-1.55-0.91-2.92-2.32-4.12-4.23c-1.2-1.91-2.09-4.04-2.68-6.41c-0.39-1.55-0.59-2.98-0.61-4.3
		c-0.02-1.31,0.19-2.82,0.63-4.52s1.11-3.59,2.02-5.67s2.05-4.47,3.44-7.16c0.82-1.65,1.52-3.04,2.08-4.17
		c0.56-1.13,1.18-1.95,1.86-2.47c0.67-0.52,1.86-0.99,3.57-1.42c1.24-0.31,2.46-0.44,3.67-0.39c1.21,0.05,1.85,0.25,1.94,0.6
		c0.17,0.7-0.08,2.1-0.77,4.21c-0.69,2.11-1.98,4.79-3.86,8.04c-1.89,3.25-4.18,6.56-6.89,9.91c-0.17,2.47-0.1,4.31,0.2,5.51
		c0.42,1.67,1.26,2.34,2.54,2.02c0.47-0.12,1.14-0.71,2.03-1.77c0.89-1.07,2.34-3.06,4.35-5.97c2.01-2.91,3.83-5.5,5.45-7.76
		c1.18-1.7,2.45-4.1,3.79-7.22c1.34-3.12,2.47-5.49,3.38-7.12c2.11-3.74,3.58-6.2,4.4-7.37c0.82-1.17,1.71-1.88,2.68-2.12
		c0.93-0.23,1.63-0.1,2.11,0.4c0.48,0.5,0.94,1.64,1.38,3.43c0.2,0.81,0.29,1.5,0.26,2.04c-0.03,0.54-0.19,1.27-0.47,2.19
		s-0.9,2.63-1.84,5.13c-0.94,2.5-2.06,5.46-3.35,8.87c-0.7,1.82-1.23,3.76-1.58,5.8c-0.35,2.05-0.42,3.54-0.18,4.47
		c0.5,2.02,1.55,2.83,3.14,2.43c1.32-0.33,2.72-1.25,4.19-2.78c1.48-1.52,3.66-4.15,6.56-7.88l0.97,3.9
		c-3.49,5.32-6.09,9.21-7.79,11.65c-1.7,2.44-3.22,4.35-4.57,5.71c-1.35,1.37-2.74,2.23-4.17,2.59c-3.26,0.81-5.37-0.72-6.34-4.6
		c-0.37-1.47-0.38-3.58-0.03-6.33C93.19,287.92,93.86,283.91,94.85,278.63z"/>
	<path class="st0" d="M127.17,242.69l2.5-0.63c1.13-4.2,2.35-7.27,3.63-9.22c1.28-1.95,2.99-3.19,5.13-3.72s3.32-0.31,3.56,0.65
		c0.12,0.47-0.4,1.94-1.56,4.41c-1.15,2.47-1.98,4.51-2.49,6.12c1.36-0.17,2.56-0.33,3.62-0.47c1.06-0.14,1.89-0.24,2.49-0.31
		c-1.18,4.66-2.91,9.56-5.17,14.7c-1.11,0.19-2.03,0.35-2.79,0.48c-0.75,0.13-1.51,0.25-2.28,0.38c-0.77,0.13-1.71,0.29-2.81,0.49
		c-1.25,3.9-2.25,7.35-3.01,10.36c-0.75,3.01-1.23,5.72-1.43,8.12c-0.21,2.4-0.06,4.59,0.43,6.57c0.67,2.68,2.07,3.75,4.2,3.22
		c1.47-0.37,3.21-1.64,5.2-3.8c1.99-2.17,4.58-5.38,7.76-9.63l0.97,3.9c-7.64,13.98-13.96,21.6-18.96,22.85
		c-1.75,0.44-3.32,0.11-4.73-0.98c-1.41-1.09-2.37-2.7-2.91-4.84c-0.36-1.43-0.48-3.22-0.38-5.35c0.11-2.13,0.44-5.38,0.99-9.77
		c-0.43,0.6-0.83,1.19-1.2,1.75c-0.37,0.57-0.72,1.09-1.03,1.56c-0.31,0.47-0.65,0.97-1.02,1.49c-0.36,0.52-0.73,1.06-1.08,1.6
		l-1-4.01c3.22-4.43,6.65-11.65,10.29-21.67c-0.59,0.11-1.14,0.21-1.65,0.32c-0.51,0.11-1.11,0.25-1.81,0.42
		c-2.29,0.57-3.96,1.15-5,1.74c-0.44,0.23-0.84,0.47-1.21,0.71c-0.37,0.24-0.64,0.38-0.79,0.41c-0.16,0.04-0.26-0.06-0.32-0.29
		c-0.32-1.28,0-3.4,0.95-6.36c0.74-2.49,1.55-4.4,2.43-5.74c0.88-1.33,2.1-2.39,3.66-3.17C121.91,244.2,124.18,243.43,127.17,242.69
		z"/>
	<path class="st0" d="M156.96,235.25l2.5-0.62c1.13-4.2,2.35-7.27,3.63-9.22c1.28-1.95,2.99-3.19,5.13-3.72s3.32-0.31,3.56,0.65
		c0.12,0.47-0.4,1.94-1.56,4.41c-1.15,2.47-1.98,4.51-2.49,6.12c1.36-0.17,2.56-0.33,3.62-0.47c1.06-0.14,1.89-0.25,2.49-0.31
		c-1.18,4.66-2.91,9.56-5.17,14.7c-1.11,0.19-2.04,0.35-2.79,0.48c-0.75,0.13-1.51,0.25-2.28,0.38c-0.77,0.13-1.71,0.29-2.82,0.49
		c-1.25,3.9-2.25,7.35-3.01,10.36c-0.75,3.01-1.23,5.72-1.43,8.12c-0.2,2.4-0.06,4.59,0.44,6.57c0.67,2.68,2.07,3.75,4.2,3.22
		c1.47-0.37,3.21-1.63,5.2-3.8s4.58-5.38,7.76-9.63l0.97,3.9c-7.63,13.98-13.95,21.6-18.96,22.85c-1.75,0.44-3.32,0.11-4.73-0.98
		c-1.41-1.09-2.38-2.7-2.91-4.84c-0.36-1.43-0.48-3.22-0.38-5.34c0.11-2.13,0.44-5.38,0.99-9.77c-0.43,0.6-0.83,1.19-1.2,1.75
		c-0.37,0.57-0.72,1.09-1.03,1.56c-0.32,0.47-0.65,0.97-1.02,1.49c-0.36,0.52-0.73,1.06-1.08,1.6l-1-4.01
		c3.22-4.43,6.65-11.65,10.29-21.67c-0.59,0.11-1.14,0.21-1.65,0.32c-0.51,0.11-1.11,0.25-1.81,0.42c-2.29,0.57-3.96,1.15-5,1.74
		c-0.44,0.23-0.84,0.47-1.21,0.7c-0.37,0.24-0.64,0.38-0.79,0.41c-0.16,0.04-0.26-0.06-0.32-0.29c-0.32-1.28,0-3.4,0.95-6.36
		c0.74-2.49,1.55-4.4,2.43-5.74c0.88-1.33,2.1-2.39,3.66-3.17C151.7,236.76,153.97,236,156.96,235.25z"/>
	<path class="st0" d="M201.68,256.16l1.06,4.25c-2.55,5.79-5.15,10.32-7.79,13.6c-2.64,3.28-5.11,5.2-7.4,5.77
		c-3.18,0.79-5.96-0.28-8.35-3.23c-2.39-2.95-4.07-6.4-5.06-10.36c-0.38-1.51-0.58-3-0.62-4.45c-0.03-1.45,0.05-2.68,0.26-3.68
		c0.2-1,0.65-2.59,1.34-4.78c3.37-9.95,7.34-15.49,11.92-16.64c2.37-0.59,3.78,0.02,4.23,1.85c0.31,1.24,0.03,3.37-0.85,6.39
		c-0.87,3.02-1.77,5.24-2.69,6.67c-2.56,4.1-4.2,6.92-4.9,8.46c-0.71,1.54-0.86,3.12-0.45,4.75c0.35,1.4,1.16,2.43,2.44,3.1
		c1.28,0.67,2.75,0.8,4.42,0.38c1.82-0.46,3.66-1.63,5.52-3.51C196.62,262.84,198.93,259.98,201.68,256.16z M191.23,231.14
		c-0.97,0.24-1.98,0.1-3.04-0.42c-1.06-0.52-1.73-1.34-2.01-2.47c-0.43-1.71-0.09-3.81,1.02-6.31c1.11-2.5,2.53-3.97,4.28-4.41
		c1.16-0.29,2.22-0.17,3.18,0.35c0.95,0.52,1.6,1.46,1.94,2.82c0.42,1.67,0.08,3.71-1,6.12
		C194.51,229.25,193.05,230.69,191.23,231.14z"/>
	<path class="st0" d="M237.75,235.97c-4.93,9.31-7.02,15.46-6.27,18.44c0.42,1.67,1.3,2.33,2.66,1.99c1.12-0.28,2.44-1.24,3.95-2.87
		c1.51-1.63,3.8-4.44,6.89-8.43l1,4.01c-4.15,6.81-7.4,11.78-9.75,14.92c-2.35,3.14-4.45,4.94-6.31,5.41
		c-3.18,0.79-5.29-0.9-6.34-5.09c-0.31-1.24-0.42-2.51-0.33-3.81c0.09-1.3,0.31-2.68,0.66-4.15c0.35-1.47,0.93-3.59,1.72-6.36
		c0.79-2.77,1.71-5.92,2.77-9.44c-1.93,1.68-4.15,4.6-6.65,8.77c-1.65,2.64-3,5.09-4.04,7.35s-2.14,4.76-3.29,7.5
		c-1.15,2.74-2.02,4.61-2.62,5.6c-0.6,1-1.3,1.59-2.12,1.8c-1.24,0.31-2.71-0.7-4.41-3.04c-1.7-2.34-2.98-5.23-3.84-8.69
		c-0.53-2.13-0.71-3.86-0.52-5.19c0.18-1.32,0.72-3.27,1.6-5.84c1.65-4.78,3.2-8.37,4.66-10.78c1.46-2.4,3.08-3.83,4.87-4.27
		c1.24-0.31,2.29-0.35,3.16-0.11c0.86,0.24,1.41,0.8,1.63,1.7c0.1,0.39,0.08,0.82-0.04,1.31s-0.29,0.94-0.5,1.36
		c-0.2,0.42-0.65,1.25-1.32,2.49c-4.43,8.32-6.4,13.49-5.9,15.5c0.28,1.13,0.79,1.6,1.53,1.41c0.47-0.12,1.18-1.09,2.15-2.92
		c0.97-1.83,2.2-4.22,3.71-7.17c1.51-2.95,3.38-6.11,5.61-9.47s4.88-6.72,7.96-10.09c1.7-1.95,3.22-3.09,4.58-3.43
		c0.62-0.15,1.44,0.55,2.47,2.1c1.03,1.56,1.76,3.21,2.19,4.95C239.49,232.3,238.98,233.81,237.75,235.97z"/>
	<path class="st0" d="M291.91,237.77l-15.35,20.71c-3.09,10.74-6.28,18.99-9.58,24.74c-3.3,5.75-6.04,8.89-8.21,9.44
		c-1.16,0.29-1.93-0.28-2.28-1.72c-0.7-2.79-0.17-6.72,1.57-11.77c0.7-1.99,1.57-3.98,2.62-5.97c1.05-1.99,2.07-3.74,3.08-5.25
		c1-1.51,2.35-3.41,4.04-5.71c1.69-2.3,2.84-3.87,3.46-4.73c1.9-8.88,3.18-15.63,3.85-20.25c-2.68,4.79-5.06,8.77-7.16,11.92
		c-2.09,3.16-4.11,5.69-6.04,7.6c-1.94,1.91-3.81,3.08-5.64,3.54c-1.98,0.49-4.2-0.63-6.65-3.38c-2.46-2.74-4.1-5.78-4.94-9.12
		c-0.39-1.55-0.44-3.27-0.14-5.16c0.29-1.89,0.96-3.99,2.01-6.31c1.05-2.32,2.5-4.8,4.36-7.42c1.86-2.63,4.13-5.31,6.83-8.04
		c5.07-5.26,9.28-8.31,12.61-9.15c2.48-0.62,3.95-0.02,4.41,1.8c0.63,2.52-1.45,5.66-6.24,9.41c-2.94,2.26-5.73,4.98-8.38,8.15
		c-2.65,3.17-4.64,6.34-5.97,9.5c-1.34,3.16-1.74,5.8-1.2,7.93c0.26,1.05,0.72,1.82,1.38,2.31c0.66,0.49,1.4,0.64,2.21,0.44
		c1.36-0.34,2.75-1.35,4.19-3.02c1.44-1.68,3.47-4.51,6.1-8.51c1.19-1.82,2.68-4.66,4.46-8.5c1.78-3.84,3.3-6.82,4.57-8.93
		c1.27-2.11,2.58-3.33,3.94-3.67c0.78-0.19,1.47-0.11,2.07,0.26c0.61,0.36,1.03,1.01,1.26,1.94c0.45,1.78,0.38,4.55-0.18,8.3
		c-0.57,3.75-1.73,9.94-3.49,18.58l11.52-13.76L291.91,237.77z"/>
	<path class="st0" d="M322.68,233.25c0.44,1.75,1.31,2.45,2.63,2.12c1.71-0.43,3.97-4.06,6.8-10.91c-0.43-1.05-0.68-1.75-0.77-2.09
		c-0.52-2.09-0.33-4.86,0.58-8.31c0.91-3.44,2.17-6.56,3.78-9.35c1.61-2.79,2.98-4.33,4.1-4.61c1.36-0.34,2.44,1.12,3.26,4.38
		c0.67,2.68,0.75,5.46,0.26,8.34c-0.5,2.89-1.49,5.96-2.98,9.21c0.44,0.26,0.91,0.52,1.43,0.79c0.52,0.26,1.05,0.46,1.6,0.59
		c0.55,0.13,1.09,0.13,1.64-0.01c1.28-0.32,2.65-1.75,4.12-4.3l1.03,4.13c-2.27,3.95-4.53,6.2-6.78,6.76
		c-1.32,0.33-2.4,0.42-3.24,0.28s-1.95-0.49-3.32-1.06c-5,10.35-9.36,16-13.08,16.93c-1.44,0.36-2.7,0.11-3.8-0.75
		c-1.1-0.86-1.89-2.24-2.36-4.14c-0.23-0.93-0.72-4.52-1.45-10.76c-1.08,2.12-2.33,4.62-3.75,7.49c-1.43,2.87-2.6,5.09-3.53,6.66
		c-0.93,1.57-1.84,2.84-2.73,3.8c-0.89,0.96-1.88,1.58-2.97,1.85c-1.05,0.26-2.46-0.09-4.25-1.04c-1.78-0.96-3.45-2.4-5.01-4.34
		c-1.56-1.94-2.65-4.17-3.28-6.69c-0.61-2.44-0.78-4.63-0.52-6.55c0.26-1.92,1.2-4.94,2.81-9.05c1.47-3.66,2.84-6.7,4.09-9.12
		s2.45-4.34,3.59-5.78s2.16-2.27,3.06-2.49c0.54-0.14,1.28-0.19,2.22-0.15c0.94,0.04,1.8,0.18,2.58,0.44
		c0.78,0.26,1.24,0.62,1.35,1.08c0.37,1.47,0.18,3.5-0.55,6.07c-0.74,2.57-2.04,5.58-3.9,9.01s-4.08,7.02-6.65,10.75
		c-0.22,2.9-0.13,5.18,0.29,6.85c0.13,0.54,0.43,1.02,0.88,1.42c0.45,0.4,0.91,0.55,1.38,0.43c1.59-0.4,4.03-3.64,7.3-9.74
		c3.28-6.09,7.36-15.11,12.26-27.04c0.17-0.45,0.71-0.79,1.6-1.02c0.97-0.24,1.91-0.25,2.81-0.02c0.9,0.23,1.44,0.71,1.63,1.45
		c0.11,0.43-0.35,2.95-1.36,7.57c-1.01,4.62-1.83,8.83-2.47,12.64C322.36,228.78,322.25,231.54,322.68,233.25z"/>
	<path class="st0" d="M353.16,207.28c4.56-6.82,9.29-12.23,14.19-16.21c4.9-3.98,8.86-6.35,11.88-7.11c0.82-0.2,1.66-0.05,2.52,0.45
		c0.87,0.51,1.62,1.15,2.25,1.94c0.63,0.79,1,1.4,1.11,1.83c0.17,0.7,0.03,1.28-0.43,1.75c-0.46,0.47-1.31,1.1-2.55,1.91
		c0.43,0.55,0.97,1.26,1.64,2.12c0.67,0.86,1.19,1.57,1.58,2.11c0.38,0.54,0.63,1.05,0.75,1.51c0.23,0.93-0.27,2.9-1.52,5.91
		c-1.25,3.01-2.1,5.21-2.55,6.6c-0.46,1.39-0.47,2.96-0.03,4.71c0.72,2.87,2.39,3.98,5.03,3.32c2.71-0.68,6.33-4.28,10.84-10.8
		l0.89,3.55c-7.09,13.35-12.75,20.55-16.98,21.61c-1.51,0.38-2.71,0.15-3.6-0.68c-0.89-0.83-1.57-2.21-2.06-4.15
		c-0.76-3.06-0.77-7.78-0.01-14.15c-4.1,7.7-7.19,13.22-9.28,16.56c-2.09,3.34-4.03,5.24-5.81,5.69c-0.85,0.21-2.1-0.26-3.75-1.41
		c-1.65-1.16-3.26-2.78-4.84-4.88c-1.57-2.1-2.68-4.41-3.31-6.93c-0.46-1.82-0.66-3.39-0.62-4.7c0.04-1.31,0.41-2.73,1.1-4.26
		C350.28,212.01,351.47,209.92,353.16,207.28z M379.43,193.92c-8.93,7.14-15.14,12.85-18.62,17.14c-3.48,4.29-4.8,8.14-3.94,11.56
		c0.31,1.24,0.78,2.21,1.4,2.89c0.63,0.69,1.31,0.94,2.04,0.76c0.43-0.11,1.11-0.57,2.07-1.38c3.47-3.42,6.41-7.48,8.83-12.19
		S376.35,201.73,379.43,193.92z"/>
	<path class="st0" d="M424.96,199.73l1.08,4.31c-5.43,12.77-10.68,19.79-15.76,21.06c-2.75,0.69-5.29-0.27-7.61-2.89
		c-2.32-2.61-4.09-6.37-5.31-11.25c-0.99-3.96-1.23-8.89-0.73-14.81c0.5-5.91,1.61-12.06,3.34-18.45
		c1.72-6.38,3.74-12.08,6.06-17.09c2.31-5.01,4.7-8.7,7.15-11.09c0.99-0.99,1.81-1.57,2.47-1.73c0.81-0.2,1.45,0.02,1.9,0.67
		c0.45,0.65,0.89,1.85,1.33,3.59c1.35,5.39,0.81,12.56-1.61,21.51c-2.42,8.95-6.53,18.5-12.32,28.64c0.12,2.11,0.31,3.71,0.58,4.8
		c0.62,2.48,1.66,4.37,3.11,5.65c1.45,1.29,3.13,1.69,5.03,1.21c0.97-0.24,1.92-0.88,2.86-1.92c0.94-1.04,1.88-2.27,2.85-3.71
		C420.31,206.8,422.18,203.97,424.96,199.73z M404.94,193.6c1.52-2.48,2.91-5.22,4.16-8.21s2.35-6.13,3.3-9.42
		c0.95-3.29,1.62-6.19,2-8.72c0.38-2.53,0.42-4.37,0.13-5.53c-0.22-0.89-0.65-1.26-1.27-1.11c-0.23,0.06-0.63,0.38-1.18,0.97
		c-1.88,2.53-3.59,6.99-5.13,13.37C405.42,181.34,404.75,187.55,404.94,193.6z"/>
	<path class="st0" d="M428.8,188.39c4.56-6.83,9.29-12.23,14.19-16.21c4.9-3.98,8.86-6.35,11.89-7.11c0.81-0.2,1.66-0.05,2.52,0.45
		c0.87,0.51,1.62,1.15,2.25,1.94c0.63,0.79,1,1.4,1.11,1.83c0.17,0.7,0.03,1.28-0.43,1.75c-0.46,0.47-1.31,1.1-2.55,1.9
		c0.43,0.55,0.97,1.26,1.64,2.12s1.19,1.57,1.58,2.11c0.38,0.54,0.63,1.05,0.75,1.51c0.23,0.93-0.28,2.9-1.52,5.91
		c-1.25,3.01-2.1,5.21-2.55,6.6c-0.46,1.39-0.47,2.96-0.03,4.71c0.72,2.87,2.39,3.98,5.03,3.32c2.71-0.68,6.33-4.28,10.84-10.81
		l0.89,3.55c-7.09,13.35-12.75,20.55-16.98,21.61c-1.51,0.38-2.71,0.15-3.6-0.68c-0.89-0.83-1.57-2.21-2.06-4.15
		c-0.76-3.06-0.77-7.78-0.01-14.15c-4.09,7.7-7.19,13.22-9.28,16.56c-2.09,3.35-4.03,5.24-5.81,5.69c-0.85,0.21-2.1-0.26-3.75-1.41
		c-1.65-1.15-3.26-2.78-4.83-4.88c-1.58-2.1-2.68-4.41-3.31-6.93c-0.46-1.82-0.66-3.39-0.62-4.7c0.04-1.31,0.41-2.73,1.1-4.26
		C425.92,193.12,427.11,191.03,428.8,188.39z M455.07,175.03c-8.93,7.14-15.14,12.85-18.62,17.14c-3.48,4.29-4.8,8.14-3.95,11.56
		c0.31,1.24,0.78,2.21,1.4,2.9c0.63,0.69,1.31,0.94,2.04,0.76c0.43-0.11,1.12-0.57,2.07-1.38c3.47-3.42,6.41-7.48,8.83-12.19
		S452,182.84,455.07,175.03z"/>
</g>
<path class="st0" d="M338.23,12.32c-16.44,0.84-32.87,1.41-47.04,11.42c5.73-1.86,11.42-3.88,17.58-4.33
	c-8.12,3.82-15.97,7.89-19.85,16.72c7.3-7.06,16.16-11.24,25.69-14.21c7.21-2.25,14.69-3.11,22.08-4.46
	c4.87-0.89,9.68-2.02,14.31-3.83c2.77-1.09,5.45-2.33,7.79-5.08c-0.2,4.6-2.23,7.62-5.26,10.11c-2.87,2.36-6.31,3.67-9.69,5.05
	c-8.51,3.48-17.05,6.9-25.57,10.36c-2.94,1.19-5.74,2.65-8.41,4.4c0.83-3.4,2.86-5.32,13.75-12.96
	c-10.94,1.52-25.45,12.6-28.2,25.79c10.13-8.71,21.81-10.25,34.25-8.65c-5.75,1.23-11.56,2.25-16.93,6.38
	c12.93-3.22,25.2-3.8,37.52,0.52c-5.54-6.62-15.67-10.34-33.28-12.08c20.25-5.22,39.31-4.24,58.15,3.17
	c-5.36-5.81-18.15-9.71-34.74-10.69c4.36-2.74,16.28-3.36,25.83-1.33c-1.96-1.95-5.14-3.22-10.54-4.23
	c1.67-1.14,5.24-1.36,8.86-0.63c6.26,1.26,11.59,4.46,16.76,7.98c3.19,2.17,6.32,4.43,9.47,6.65c3.03,2.13,6.19,4.03,9.68,5.49
	c-4.06,0.35-8.04,0.58-12.72-0.3c2.75,3,5.03,5.63,6.83,8.61c10.46,17.39,10.09,35.07,1.37,52.95c-3.18,6.52-6.93,12.82-11.86,18.06
	c-6.26,6.64-6.76,14.13-5.38,22.33c0.03,0.19,0,0.39,0,0.8c-1.89-0.75-2.52-2.43-3.1-3.95c-0.73-1.93-1.15-3.98-1.61-6
	c-0.94-4.11-1.28-4.41-5.59-4.31c-0.19-1.29,1.18-2,1.18-3.24c-0.94-0.5-1.67,0.3-2.51,0.43c-0.76,0.11-1.49,0.36-2.53,0.63
	c5.71-7.18,8.59-15.13,9.39-23.89c0.68-7.44-2.6-12.92-8.59-14.38c-7.47-1.82-13.27,2.68-13.28,10.31
	c-0.01,6.26,1.21,12.41,1.65,18.63c0.4,5.65,0.48,11.28-0.55,16.87c-1.94,10.59-8.16,18.19-17.29,23.28
	c-12.31,6.86-25.14,12.55-39.31,14.38c-4.35,0.56-8.7,0.11-12.79-1.74c-4.4-1.99-5.38-4.12-4.08-8.69
	c1.32-4.62,1.73-9.36,1.55-14.11c-0.09-2.4,0.4-3.51,3-2.99c1.01,0.2,2.08,0.12,3.16,0.17c-0.27,1.43-3.32,1.09-1.74,3.37
	c1.26,1.81,2.61,2.92,4.92,1.89c3.43-1.53,6.86-3.05,10.34-4.47c1.29-0.53,1.26-1.18,0.78-2.27c-1.72-3.97-4.71-6.03-9.03-6
	c-4.16,0.03-8.26-0.15-12.57-2.52c0.65,1.21,0.99,1.84,1.36,2.52c-3.32-0.55-5.92-3.29-5.87-6.33c0.05-3.25,2.31-5.72,3.19-8.77
	c1.32,1.19,0.49,2.71,0.87,4.02c1.72-0.1,2.42-1.53,3.8-2.91c1.67,6.17,6.51,7.2,11.73,7.63c3.98,0.33,6.41,2.71,8.11,6.94
	c0.16-1.66,0.25-2.56,0.38-3.93c1.75,2.92,2.08,5.78,2.75,8.65c3.23-0.54,5.27-2.35,6.31-5.37c0.13-0.37,0.28-0.74,0.43-1.11
	c2.28-5.55,2.28-5.55-2.79-8.52c-0.33-0.19-0.74-0.3-0.73-1.02c4.46-0.83,8.91-1.91,13.18-3.68c4.76-1.97,7.69-5.26,8.78-10.37
	c1.46-6.87,1.93-13.75,0.46-20.62c-1.71-7.98-7.02-13.06-14.15-16.49c-2.06-0.99-4.62-1.78-2.11-4.81c0.2-0.24,0.27-0.89,0.1-1.1
	c-2.6-3.17,0.34-2.62,1.92-2.82c4.73-0.6,9.47-0.43,14.25-0.2c-6.17-2.95-12.9-3.76-19.77-4.97c3.24-1.74,8.16-2.8,14.45-2.96
	c4.8-0.12,9.6-0.01,14.43-0.21c-5.81-2.02-11.82-2.91-17.9-3.32c-14.26-0.96-28.28,0.43-41.97,4.62c-2.07,0.63-3.16,0.18-4.34-1.55
	c-9.85-14.46-3.45-38.08,12.71-44.42c6.61-2.6,13.39-4.13,20.41-4.8c6.72-0.64,13.45-0.49,20.18-0.23
	C332.94,11.71,335.58,12.07,338.23,12.32z"/>
<g>
	<path class="st0" d="M96,339.57c58.91,20.69,116.01,39.19,177.52,35.39c7.1-0.44,8.12,2.33,6.45,7.94
		c-1.16,3.91-2.51,7.78-4.12,11.53c-3.33,7.77-8.45,12.01-17.82,10.68c-58.86-8.39-116.99-19.64-172.29-42.41
		c-6.81-2.8-13.42-6.19-18.97-11.16c-2.85-2.55-5.71-2.45-9.1-1.55c-9.52,2.52-19.22,4.18-29.06,4.83
		c-1.98,0.13-4.77,1.58-5.33-1.69c-0.41-2.4,1.3-3.85,3.73-4.61c8.07-2.52,16.05-5.32,24.13-7.8c3.69-1.13,5.87-2.09,5.18-7.14
		c-1.01-7.36,2.04-9.64,8.47-6.16c9.08,4.91,17.22,3.43,26.42,0.37c45.29-15.08,90.75-29.62,136.18-44.28
		c4.57-1.48,9.71-4.41,13.8,0.08c4.35,4.76,3.52,11.24,3.61,17.23c0.05,3.16-2.78,3.06-4.61,3.69
		c-27.86,9.55-55.77,18.97-83.65,28.49c-3.38,1.16-6.61,2.21-7.24-2.82c-0.39-3.12-2.26-2.53-4.03-2.05
		C129.76,332.29,113.57,333.63,96,339.57z"/>
	<path class="st1" d="M73.32,345.69c-0.65-1.75-1.18-3.72,0.73-4.95c1.71-1.1,3.61-0.73,4.87,1.04c1.09,1.53,0.75,3.22-0.57,4.29
		C76.77,347.33,74.93,347.37,73.32,345.69z"/>
</g>
<g>
	<path class="st2" d="M141.05,327.2c-0.34,0.34-1.14,0.93-2.28,1.31c-2.57,0.86-4.85-0.33-5.72-2.94c-0.88-2.63,0.27-5.15,3.06-6.09
		c0.92-0.31,1.82-0.35,2.31-0.27l0.05,1.31c-0.45-0.08-1.1-0.09-1.95,0.2c-1.95,0.65-2.53,2.47-1.93,4.24
		c0.66,1.98,2.34,2.77,4.04,2.2c0.87-0.29,1.39-0.71,1.76-1.05L141.05,327.2z"/>
	<path class="st2" d="M149.35,322.17c0.3,0.9,0.58,1.65,0.85,2.31l-1.37,0.46l-0.55-1.37l-0.04,0.01c-0.16,0.82-0.76,2.03-2.29,2.54
		c-1.34,0.45-3.19,0.23-4.19-2.76l-1.67-4.99l1.54-0.52l1.58,4.72c0.54,1.63,1.42,2.56,2.82,2.09c1.04-0.35,1.52-1.32,1.58-2.11
		c0.01-0.25-0.03-0.55-0.13-0.84l-1.75-5.23l1.54-0.52L149.35,322.17z"/>
	<path class="st2" d="M150.9,312.02l0.82,2.46l2.23-0.75l0.39,1.18l-2.23,0.75l1.54,4.6c0.36,1.06,0.86,1.56,1.73,1.27
		c0.4-0.13,0.68-0.28,0.86-0.41l0.47,1.16c-0.26,0.22-0.71,0.48-1.32,0.68c-0.71,0.24-1.39,0.2-1.9-0.1
		c-0.58-0.33-1.01-1.02-1.35-2.03l-1.56-4.66l-1.32,0.44l-0.39-1.18l1.32-0.44l-0.69-2.06L150.9,312.02z"/>
	<path class="st2" d="M156.75,310.07l0.82,2.46l2.23-0.75l0.39,1.18l-2.23,0.75l1.54,4.6c0.36,1.06,0.86,1.56,1.73,1.27
		c0.4-0.13,0.68-0.28,0.86-0.41l0.47,1.16c-0.26,0.22-0.71,0.48-1.32,0.68c-0.71,0.24-1.39,0.2-1.9-0.1
		c-0.59-0.33-1.01-1.02-1.35-2.03l-1.56-4.66l-1.32,0.44l-0.39-1.18l1.32-0.44l-0.69-2.06L156.75,310.07z"/>
	<path class="st2" d="M162.48,308.2c0.18,0.53-0.05,1.09-0.66,1.29c-0.56,0.19-1.08-0.12-1.26-0.65c-0.18-0.53,0.07-1.1,0.64-1.29
		C161.77,307.36,162.29,307.66,162.48,308.2z M164.4,319.73l-2.86-8.54l1.54-0.52l2.86,8.54L164.4,319.73z"/>
	<path class="st2" d="M166.45,312.12c-0.3-0.89-0.56-1.59-0.84-2.28l1.37-0.46l0.56,1.38l0.04-0.01c0.15-0.94,0.88-2.07,2.29-2.54
		c1.17-0.39,3.25-0.3,4.23,2.63l1.7,5.09l-1.54,0.52l-1.65-4.92c-0.46-1.38-1.37-2.36-2.82-1.88c-1.02,0.34-1.57,1.33-1.56,2.29
		c0,0.21,0.05,0.5,0.13,0.75l1.72,5.15l-1.54,0.52L166.45,312.12z"/>
	<path class="st2" d="M182.84,304.07c0.16,0.62,0.36,1.32,0.71,2.36l1.66,4.96c0.66,1.98,0.65,3.3,0.09,4.32
		c-0.58,1.05-1.69,1.7-2.77,2.06c-1.03,0.35-2.24,0.48-3.08,0.25l-0.01-1.33c0.69,0.17,1.68,0.2,2.74-0.16
		c1.58-0.53,2.47-1.75,1.75-3.91l-0.32-0.95l-0.04,0.01c-0.2,0.96-0.92,1.91-2.23,2.35c-2.13,0.71-4.25-0.59-5.04-2.96
		c-0.97-2.89,0.37-5.16,2.34-5.82c1.48-0.5,2.54,0,3.16,0.58l0.04-0.01l-0.36-1.3L182.84,304.07z M182.35,307.97
		c-0.08-0.25-0.18-0.48-0.32-0.67c-0.59-0.81-1.59-1.3-2.73-0.92c-1.48,0.5-2.12,2.1-1.46,4.09c0.56,1.67,1.89,2.79,3.56,2.23
		c0.96-0.32,1.62-1.22,1.62-2.32c0-0.28-0.06-0.6-0.15-0.87L182.35,307.97z"/>
	<path class="st2" d="M185.95,303.03l2.6,3.95c0.56,0.87,1.08,1.69,1.55,2.51l0.04-0.01c-0.1-0.92-0.13-1.95-0.14-2.97l-0.06-4.81
		l1.31-0.44l2.76,3.83c0.64,0.91,1.2,1.73,1.69,2.53l0.04-0.01c-0.13-0.92-0.2-1.89-0.26-2.99l-0.21-4.69l1.53-0.51l0.1,9.46
		l-1.41,0.47l-2.66-3.64c-0.63-0.85-1.16-1.63-1.7-2.56l-0.04,0.01c0.13,1.1,0.16,2.08,0.16,3.09l-0.01,4.52l-1.42,0.47l-5.43-7.68
		L185.95,303.03z"/>
	<path class="st2" d="M205.85,305.87l-0.5-1.03l-0.05,0.02c-0.25,0.82-0.96,1.74-2.19,2.15c-1.73,0.58-3.02-0.35-3.43-1.58
		c-0.69-2.07,0.76-3.82,4.07-4.9l-0.06-0.18c-0.23-0.69-0.86-1.91-2.6-1.32c-0.79,0.27-1.55,0.78-2.01,1.38l-0.7-0.91
		c0.55-0.69,1.49-1.33,2.57-1.69c2.61-0.87,3.84,0.7,4.42,2.41l1.07,3.19c0.24,0.73,0.52,1.44,0.81,2L205.85,305.87z M204.15,301.59
		c-1.69,0.53-3.52,1.47-2.96,3.12c0.34,1.02,1.17,1.26,1.95,1c1.12-0.38,1.6-1.32,1.6-2.13c0-0.18-0.04-0.37-0.09-0.51
		L204.15,301.59z"/>
	<path class="st2" d="M205.44,292.07l1.54-0.52l4.19,12.53l-1.54,0.52L205.44,292.07z"/>
	<path class="st2" d="M218.53,301.63l-0.5-1.03l-0.05,0.02c-0.25,0.82-0.96,1.74-2.19,2.15c-1.72,0.58-3.02-0.35-3.43-1.58
		c-0.69-2.07,0.76-3.82,4.07-4.9l-0.06-0.18c-0.23-0.69-0.86-1.91-2.6-1.32c-0.79,0.27-1.55,0.78-2.01,1.38l-0.7-0.91
		c0.55-0.69,1.49-1.33,2.57-1.69c2.61-0.87,3.84,0.7,4.42,2.41l1.07,3.19c0.24,0.73,0.52,1.45,0.81,2L218.53,301.63z M216.83,297.35
		c-1.69,0.53-3.52,1.47-2.96,3.12c0.34,1.02,1.17,1.26,1.95,1c1.12-0.38,1.6-1.32,1.6-2.13c0-0.18-0.04-0.37-0.09-0.51
		L216.83,297.35z"/>
	<path class="st2" d="M221.63,299.58c-0.22-0.65,0.06-1.27,0.68-1.47c0.62-0.21,1.19,0.11,1.42,0.77c0.21,0.62-0.04,1.25-0.68,1.46
		C222.42,300.54,221.83,300.2,221.63,299.58z"/>
	<path class="st2" d="M224.03,287.61c0.18,0.53-0.05,1.09-0.67,1.29c-0.56,0.19-1.08-0.12-1.26-0.65c-0.18-0.53,0.07-1.1,0.64-1.29
		C223.32,286.77,223.84,287.07,224.03,287.61z M225.96,299.14l-2.86-8.54l1.54-0.52l2.86,8.54L225.96,299.14z"/>
	<path class="st2" d="M228,291.53c-0.3-0.89-0.56-1.59-0.84-2.28l1.37-0.46l0.56,1.37l0.04-0.01c0.15-0.94,0.88-2.07,2.29-2.54
		c1.17-0.39,3.24-0.3,4.23,2.63l1.7,5.09l-1.54,0.52l-1.65-4.92c-0.46-1.38-1.37-2.36-2.82-1.88c-1.02,0.34-1.57,1.33-1.56,2.29
		c0,0.21,0.05,0.5,0.13,0.75l1.72,5.15l-1.54,0.52L228,291.53z"/>
</g>
<g>
	<path d="M293.31,283.17c0.01,0.04,0.01,0.07,0,0.11c-0.01,0.03-0.03,0.07-0.07,0.1c-0.04,0.03-0.09,0.06-0.16,0.09
		c-0.07,0.03-0.15,0.06-0.25,0.09c-0.11,0.03-0.2,0.05-0.27,0.05c-0.07,0.01-0.13,0.01-0.18,0c-0.05-0.01-0.08-0.02-0.11-0.05
		c-0.03-0.03-0.04-0.06-0.05-0.09l-1.5-5.39l-5.77,1.6l1.49,5.39c0.01,0.04,0.01,0.07,0,0.11c-0.01,0.03-0.03,0.07-0.07,0.1
		c-0.04,0.03-0.09,0.06-0.15,0.09c-0.07,0.03-0.15,0.06-0.26,0.09c-0.1,0.03-0.19,0.05-0.26,0.05c-0.07,0.01-0.13,0.01-0.18,0
		c-0.05-0.01-0.08-0.02-0.11-0.05c-0.03-0.03-0.04-0.06-0.05-0.09l-3.11-11.2c-0.01-0.04-0.01-0.07,0-0.11
		c0.01-0.03,0.03-0.07,0.07-0.1c0.04-0.03,0.09-0.06,0.16-0.09c0.07-0.03,0.15-0.06,0.25-0.09c0.11-0.03,0.2-0.05,0.27-0.06
		c0.07-0.01,0.13-0.01,0.18,0c0.05,0.01,0.08,0.02,0.11,0.05c0.03,0.03,0.04,0.06,0.05,0.09l1.34,4.84l5.77-1.6l-1.34-4.84
		c-0.01-0.04-0.01-0.07,0-0.11c0.01-0.03,0.03-0.07,0.07-0.1c0.04-0.03,0.09-0.06,0.15-0.09c0.07-0.03,0.15-0.06,0.26-0.09
		c0.1-0.03,0.19-0.05,0.26-0.05c0.08-0.01,0.14-0.01,0.18,0c0.05,0.01,0.08,0.02,0.11,0.05c0.03,0.03,0.04,0.06,0.05,0.09
		L293.31,283.17z"/>
	<path d="M304.85,279.76c0.06,0.08,0.1,0.15,0.11,0.2c0.01,0.06,0,0.11-0.03,0.15s-0.08,0.08-0.16,0.11
		c-0.08,0.03-0.18,0.06-0.3,0.1c-0.13,0.03-0.23,0.06-0.3,0.07c-0.08,0.01-0.14,0.01-0.19,0.01c-0.05-0.01-0.08-0.02-0.11-0.04
		c-0.03-0.02-0.06-0.05-0.09-0.09l-1.96-2.77l-5.07,1.41l-0.21,3.36c0,0.04-0.01,0.08-0.02,0.12s-0.04,0.07-0.08,0.1
		c-0.04,0.03-0.09,0.06-0.16,0.1c-0.07,0.03-0.16,0.06-0.28,0.1c-0.13,0.04-0.23,0.06-0.32,0.07c-0.09,0.01-0.15,0.01-0.2-0.01
		c-0.05-0.02-0.08-0.05-0.1-0.11s-0.02-0.13-0.01-0.23l1-12.12c0-0.05,0.02-0.1,0.05-0.14c0.03-0.04,0.07-0.08,0.12-0.11
		c0.05-0.03,0.12-0.07,0.2-0.1c0.08-0.03,0.17-0.06,0.27-0.09c0.11-0.03,0.2-0.05,0.29-0.06c0.08-0.01,0.16-0.02,0.22-0.02
		c0.06,0,0.11,0.01,0.16,0.04c0.04,0.02,0.08,0.06,0.11,0.1L304.85,279.76z M297.27,271.07L297.27,271.07l-0.46,6.83l4.42-1.23
		L297.27,271.07z"/>
	<path d="M308.09,279.06c0.01,0.04,0.01,0.07,0,0.11c-0.01,0.03-0.03,0.07-0.07,0.1c-0.04,0.03-0.09,0.06-0.15,0.09
		c-0.06,0.03-0.15,0.06-0.26,0.09c-0.1,0.03-0.19,0.05-0.26,0.05c-0.08,0.01-0.14,0.01-0.18,0c-0.05-0.01-0.08-0.02-0.11-0.05
		c-0.03-0.02-0.04-0.06-0.05-0.09l-3.11-11.2c-0.01-0.04-0.01-0.07,0-0.11c0.01-0.04,0.04-0.07,0.08-0.1
		c0.04-0.03,0.09-0.06,0.16-0.09c0.06-0.03,0.14-0.06,0.24-0.09c0.11-0.03,0.2-0.05,0.27-0.06c0.07-0.01,0.13-0.01,0.18,0
		c0.05,0.01,0.08,0.02,0.11,0.05c0.03,0.03,0.04,0.05,0.05,0.09L308.09,279.06z"/>
	<path d="M318.7,276.1c0.01,0.04,0.01,0.08,0.01,0.11c-0.01,0.03-0.03,0.07-0.06,0.1c-0.04,0.03-0.09,0.06-0.16,0.1
		c-0.07,0.03-0.16,0.06-0.28,0.1c-0.1,0.03-0.19,0.05-0.26,0.06c-0.07,0.01-0.13,0.01-0.19,0c-0.05-0.01-0.1-0.04-0.15-0.08
		c-0.04-0.04-0.08-0.09-0.13-0.15l-1.86-2.51c-0.21-0.28-0.43-0.54-0.65-0.78c-0.22-0.24-0.46-0.43-0.72-0.58
		c-0.26-0.15-0.55-0.24-0.87-0.28c-0.32-0.04-0.68,0-1.08,0.11l-1.2,0.33l1.45,5.21c0.01,0.04,0.01,0.07,0,0.11
		c-0.01,0.03-0.03,0.07-0.07,0.1c-0.04,0.03-0.09,0.06-0.15,0.09c-0.06,0.03-0.15,0.06-0.26,0.09c-0.1,0.03-0.19,0.05-0.26,0.05
		c-0.08,0.01-0.14,0.01-0.18,0c-0.05-0.01-0.08-0.02-0.11-0.05c-0.03-0.03-0.04-0.06-0.05-0.09l-3-10.82
		c-0.06-0.21-0.04-0.38,0.05-0.49c0.09-0.11,0.19-0.18,0.3-0.21l2.17-0.6c0.29-0.08,0.53-0.14,0.72-0.18
		c0.19-0.04,0.37-0.06,0.53-0.08c0.46-0.04,0.88-0.03,1.26,0.06c0.38,0.08,0.71,0.22,0.99,0.41c0.29,0.19,0.52,0.44,0.72,0.72
		c0.19,0.29,0.34,0.62,0.44,0.99c0.11,0.38,0.15,0.74,0.12,1.07s-0.1,0.64-0.23,0.92c-0.13,0.28-0.31,0.55-0.54,0.79
		c-0.23,0.24-0.49,0.47-0.79,0.67c0.22,0.03,0.43,0.1,0.62,0.18c0.19,0.09,0.38,0.21,0.57,0.35c0.19,0.15,0.37,0.32,0.56,0.53
		c0.19,0.21,0.38,0.44,0.58,0.71l1.83,2.4c0.14,0.19,0.22,0.32,0.27,0.39S318.69,276.07,318.7,276.1z M314.49,268.37
		c-0.14-0.49-0.36-0.88-0.68-1.16c-0.32-0.28-0.75-0.43-1.31-0.43c-0.19,0-0.38,0.02-0.59,0.05c-0.21,0.04-0.48,0.1-0.8,0.19
		l-1.43,0.4l1.18,4.24l1.66-0.46c0.45-0.12,0.82-0.29,1.11-0.49c0.29-0.2,0.52-0.42,0.67-0.67c0.16-0.25,0.25-0.52,0.28-0.8
		S314.57,268.67,314.49,268.37z"/>
	<path d="M328.21,271.98c0.02,0.07,0.03,0.13,0.04,0.18c0.01,0.06,0.01,0.11,0.01,0.15c0,0.04-0.01,0.09-0.02,0.13
		s-0.04,0.1-0.08,0.17c-0.04,0.07-0.14,0.2-0.29,0.38s-0.36,0.37-0.61,0.58c-0.25,0.21-0.56,0.41-0.91,0.6
		c-0.35,0.19-0.75,0.35-1.21,0.48c-0.73,0.2-1.42,0.26-2.08,0.17c-0.66-0.09-1.26-0.32-1.81-0.69c-0.55-0.37-1.04-0.89-1.46-1.54
		c-0.42-0.65-0.76-1.44-1.01-2.36c-0.26-0.94-0.38-1.82-0.35-2.63c0.03-0.81,0.19-1.54,0.48-2.18s0.69-1.18,1.22-1.63
		c0.53-0.45,1.16-0.77,1.89-0.97c0.35-0.1,0.69-0.16,1.03-0.18c0.34-0.03,0.67-0.02,0.97,0c0.3,0.02,0.58,0.07,0.83,0.14
		c0.25,0.07,0.43,0.13,0.54,0.19c0.1,0.06,0.17,0.1,0.2,0.13c0.03,0.03,0.06,0.07,0.08,0.11c0.02,0.04,0.05,0.09,0.07,0.14
		c0.02,0.06,0.04,0.12,0.06,0.19c0.02,0.08,0.04,0.16,0.05,0.22c0.01,0.07,0.01,0.12,0,0.17c-0.01,0.05-0.02,0.09-0.05,0.12
		s-0.06,0.05-0.1,0.06c-0.08,0.02-0.22,0-0.4-0.08c-0.19-0.08-0.42-0.16-0.71-0.24c-0.29-0.08-0.63-0.13-1.02-0.15
		c-0.39-0.02-0.83,0.03-1.33,0.17c-0.54,0.15-1.01,0.4-1.4,0.74c-0.39,0.34-0.69,0.77-0.9,1.28c-0.21,0.51-0.32,1.11-0.33,1.78
		c-0.01,0.67,0.1,1.41,0.32,2.21c0.21,0.77,0.49,1.43,0.82,1.98s0.71,0.98,1.14,1.3c0.43,0.32,0.91,0.52,1.43,0.61
		c0.52,0.08,1.08,0.05,1.67-0.12c0.48-0.13,0.89-0.31,1.21-0.53s0.6-0.44,0.81-0.66s0.39-0.41,0.52-0.58
		c0.13-0.17,0.24-0.26,0.33-0.29c0.04-0.01,0.07-0.01,0.1,0c0.03,0.01,0.05,0.03,0.08,0.06c0.03,0.03,0.05,0.08,0.08,0.15
		C328.15,271.81,328.18,271.89,328.21,271.98z"/>
	<path d="M337.97,266.38c0.2,0.7,0.27,1.36,0.22,1.96c-0.05,0.6-0.21,1.14-0.47,1.62c-0.26,0.48-0.63,0.89-1.1,1.23
		c-0.47,0.34-1.03,0.6-1.68,0.78c-0.59,0.16-1.16,0.22-1.71,0.17c-0.55-0.05-1.05-0.2-1.51-0.46s-0.86-0.63-1.21-1.11
		c-0.35-0.48-0.62-1.07-0.81-1.76l-2.01-7.25c-0.01-0.04-0.01-0.07,0-0.11c0.01-0.03,0.03-0.07,0.07-0.1
		c0.04-0.03,0.09-0.06,0.15-0.09c0.06-0.03,0.15-0.06,0.25-0.09c0.1-0.03,0.19-0.05,0.26-0.05c0.07-0.01,0.14-0.01,0.18,0
		c0.05,0.01,0.08,0.02,0.11,0.05c0.03,0.03,0.04,0.05,0.05,0.09l1.96,7.08c0.16,0.58,0.37,1.06,0.63,1.46
		c0.26,0.4,0.56,0.7,0.91,0.92c0.34,0.21,0.73,0.34,1.15,0.38s0.87,0,1.34-0.14c0.48-0.13,0.89-0.32,1.23-0.57
		c0.34-0.25,0.6-0.55,0.78-0.91c0.18-0.36,0.29-0.77,0.31-1.23c0.02-0.47-0.05-0.98-0.21-1.56l-1.98-7.14
		c-0.01-0.04-0.01-0.07,0-0.11c0.01-0.03,0.03-0.07,0.07-0.1c0.04-0.03,0.09-0.06,0.16-0.09c0.07-0.03,0.15-0.06,0.25-0.09
		c0.1-0.03,0.19-0.05,0.26-0.05c0.07-0.01,0.13-0.01,0.18,0s0.08,0.02,0.11,0.05c0.03,0.03,0.04,0.05,0.05,0.09L337.97,266.38z"/>
	<path d="M346.44,256.7c0.02,0.08,0.04,0.15,0.04,0.21c0,0.06,0,0.12-0.01,0.16s-0.03,0.08-0.06,0.11
		c-0.03,0.03-0.07,0.05-0.11,0.06l-3.45,0.96l2.89,10.41c0.01,0.04,0.01,0.07,0,0.11c-0.01,0.03-0.03,0.07-0.07,0.1
		c-0.04,0.03-0.09,0.06-0.16,0.09s-0.15,0.06-0.25,0.09c-0.1,0.03-0.19,0.05-0.26,0.05c-0.08,0.01-0.14,0.01-0.18,0
		c-0.05-0.01-0.08-0.02-0.11-0.05c-0.03-0.02-0.04-0.06-0.05-0.09l-2.89-10.41l-3.45,0.96c-0.05,0.01-0.09,0.01-0.13,0
		c-0.04-0.01-0.08-0.03-0.11-0.06c-0.04-0.03-0.07-0.08-0.09-0.13c-0.03-0.06-0.05-0.12-0.08-0.2c-0.02-0.08-0.04-0.16-0.04-0.22
		c-0.01-0.07,0-0.12,0.01-0.17c0.01-0.05,0.03-0.09,0.06-0.12c0.03-0.03,0.06-0.05,0.11-0.06l7.99-2.22c0.04-0.01,0.08-0.01,0.13,0
		c0.04,0.01,0.08,0.03,0.12,0.07c0.04,0.03,0.07,0.08,0.1,0.14C346.39,256.55,346.41,256.62,346.44,256.7z"/>
	<path d="M350.46,266.33c0.04,0.16,0.08,0.31,0.1,0.44s0.03,0.27,0.03,0.4c0,0.13-0.02,0.26-0.04,0.4
		c-0.03,0.13-0.07,0.28-0.12,0.44l-0.71,2.25c-0.01,0.04-0.03,0.08-0.06,0.12c-0.03,0.04-0.06,0.07-0.1,0.1
		c-0.04,0.03-0.09,0.06-0.15,0.08c-0.06,0.03-0.13,0.05-0.22,0.08c-0.07,0.02-0.12,0.03-0.17,0.04c-0.05,0.01-0.09,0.01-0.11-0.01
		c-0.03-0.01-0.04-0.03-0.05-0.06c-0.01-0.03-0.01-0.06,0-0.11l0.56-2.79l-0.28-1c-0.04-0.13-0.05-0.24-0.05-0.33
		c0-0.09,0.02-0.16,0.06-0.21c0.04-0.06,0.1-0.11,0.18-0.14c0.08-0.04,0.18-0.07,0.3-0.11c0.11-0.03,0.21-0.05,0.3-0.06
		c0.09-0.01,0.16,0,0.23,0.03c0.07,0.03,0.12,0.08,0.17,0.15C350.38,266.1,350.42,266.2,350.46,266.33z"/>
	<path d="M362.98,260.66c0.14,0.51,0.18,1,0.11,1.45c-0.07,0.46-0.24,0.87-0.49,1.25c-0.25,0.38-0.59,0.7-1.01,0.98
		c-0.42,0.28-0.9,0.49-1.44,0.64c-0.37,0.1-0.73,0.16-1.07,0.19c-0.35,0.02-0.66,0.02-0.94,0s-0.53-0.06-0.73-0.11
		c-0.2-0.05-0.35-0.1-0.43-0.15c-0.08-0.05-0.15-0.12-0.21-0.2c-0.06-0.08-0.1-0.19-0.14-0.33c-0.03-0.1-0.04-0.19-0.05-0.26
		c-0.01-0.07,0-0.13,0-0.17c0.01-0.05,0.03-0.08,0.06-0.11c0.03-0.03,0.06-0.04,0.1-0.05c0.08-0.02,0.22,0,0.4,0.06
		c0.18,0.06,0.41,0.12,0.68,0.18c0.28,0.05,0.6,0.09,0.96,0.1c0.37,0.01,0.77-0.05,1.22-0.17c0.36-0.1,0.68-0.24,0.96-0.42
		c0.28-0.18,0.5-0.4,0.67-0.64c0.17-0.25,0.28-0.52,0.32-0.83c0.05-0.31,0.02-0.63-0.07-0.97c-0.1-0.36-0.26-0.64-0.49-0.86
		s-0.49-0.38-0.8-0.5s-0.64-0.22-1.01-0.29s-0.74-0.13-1.12-0.2c-0.38-0.06-0.76-0.14-1.13-0.24c-0.37-0.1-0.72-0.23-1.04-0.41
		c-0.32-0.18-0.61-0.41-0.85-0.7c-0.25-0.29-0.43-0.67-0.56-1.12c-0.12-0.45-0.15-0.87-0.09-1.27c0.06-0.4,0.21-0.76,0.43-1.09
		c0.22-0.33,0.52-0.61,0.89-0.86s0.8-0.43,1.29-0.57c0.24-0.07,0.5-0.11,0.76-0.13c0.26-0.02,0.52-0.03,0.76-0.01
		c0.24,0.01,0.47,0.04,0.67,0.08c0.2,0.04,0.34,0.09,0.41,0.13c0.07,0.04,0.12,0.07,0.14,0.1c0.02,0.02,0.05,0.05,0.07,0.09
		c0.02,0.04,0.05,0.08,0.07,0.14s0.04,0.12,0.07,0.21c0.02,0.08,0.04,0.15,0.04,0.21c0.01,0.06,0.01,0.12,0,0.17
		c-0.01,0.05-0.02,0.09-0.04,0.12c-0.02,0.03-0.05,0.05-0.08,0.06c-0.07,0.02-0.18,0-0.33-0.05c-0.16-0.05-0.35-0.1-0.58-0.15
		c-0.23-0.05-0.5-0.08-0.8-0.09s-0.63,0.04-0.99,0.14c-0.35,0.1-0.64,0.23-0.88,0.4c-0.24,0.17-0.42,0.36-0.54,0.57
		c-0.13,0.21-0.2,0.44-0.23,0.68c-0.03,0.24,0,0.49,0.06,0.73c0.1,0.36,0.26,0.64,0.49,0.86c0.23,0.21,0.49,0.38,0.8,0.51
		c0.31,0.13,0.65,0.22,1.02,0.29c0.37,0.07,0.74,0.13,1.12,0.2c0.38,0.07,0.76,0.14,1.13,0.23c0.38,0.09,0.73,0.23,1.05,0.4
		c0.32,0.17,0.61,0.41,0.86,0.7C362.66,259.83,362.85,260.21,362.98,260.66z"/>
	<path d="M374.18,260.72c0.01,0.04,0.01,0.07,0,0.11c-0.01,0.03-0.03,0.07-0.07,0.1c-0.04,0.03-0.09,0.06-0.16,0.09
		c-0.07,0.03-0.15,0.06-0.25,0.09c-0.11,0.03-0.2,0.05-0.27,0.06c-0.07,0.01-0.13,0.01-0.18,0c-0.05-0.01-0.08-0.02-0.11-0.05
		c-0.03-0.03-0.04-0.06-0.05-0.09l-1.5-5.39l-5.77,1.6l1.5,5.39c0.01,0.04,0.01,0.07,0,0.11c-0.01,0.03-0.03,0.07-0.07,0.1
		c-0.04,0.03-0.09,0.06-0.15,0.09c-0.06,0.03-0.15,0.06-0.26,0.09c-0.1,0.03-0.19,0.05-0.26,0.05c-0.08,0.01-0.14,0.01-0.18,0
		c-0.05-0.01-0.08-0.02-0.11-0.05c-0.03-0.03-0.04-0.06-0.05-0.09l-3.11-11.2c-0.01-0.04-0.01-0.07,0-0.11
		c0.01-0.03,0.03-0.07,0.07-0.1c0.04-0.03,0.09-0.06,0.16-0.09c0.07-0.03,0.15-0.06,0.25-0.09c0.11-0.03,0.2-0.05,0.27-0.06
		c0.07-0.01,0.13-0.01,0.18,0c0.05,0.01,0.08,0.02,0.11,0.05c0.03,0.03,0.04,0.05,0.05,0.09l1.34,4.84l5.77-1.6l-1.34-4.84
		c-0.01-0.04-0.01-0.07,0-0.11c0.01-0.03,0.03-0.07,0.07-0.1c0.04-0.03,0.09-0.06,0.15-0.09c0.06-0.03,0.15-0.06,0.26-0.09
		c0.1-0.03,0.19-0.05,0.26-0.05c0.07-0.01,0.14-0.01,0.18,0c0.05,0.01,0.08,0.02,0.11,0.05c0.03,0.03,0.04,0.06,0.05,0.09
		L374.18,260.72z"/>
	<path d="M385.71,257.32c0.06,0.08,0.1,0.15,0.11,0.2c0.01,0.06,0,0.11-0.03,0.15s-0.08,0.08-0.16,0.11
		c-0.08,0.03-0.18,0.06-0.3,0.1c-0.12,0.03-0.23,0.06-0.3,0.07c-0.08,0.01-0.14,0.01-0.19,0.01c-0.05-0.01-0.08-0.02-0.11-0.04
		s-0.06-0.05-0.09-0.09l-1.96-2.77l-5.07,1.41l-0.21,3.36c0,0.04-0.01,0.09-0.02,0.12c-0.02,0.04-0.04,0.07-0.08,0.1
		c-0.04,0.03-0.09,0.06-0.16,0.1c-0.07,0.03-0.16,0.06-0.28,0.1c-0.13,0.03-0.23,0.06-0.32,0.07c-0.09,0.01-0.15,0.01-0.2-0.01
		s-0.08-0.05-0.1-0.11c-0.02-0.05-0.02-0.13-0.01-0.23l1-12.12c0-0.05,0.02-0.1,0.05-0.14c0.03-0.04,0.07-0.08,0.12-0.11
		c0.05-0.03,0.12-0.07,0.19-0.1c0.08-0.03,0.17-0.06,0.27-0.09c0.11-0.03,0.2-0.05,0.29-0.06c0.08-0.01,0.16-0.02,0.22-0.02
		s0.11,0.01,0.16,0.04c0.04,0.02,0.08,0.06,0.11,0.1L385.71,257.32z M378.13,248.63L378.13,248.63l-0.46,6.83l4.42-1.23
		L378.13,248.63z"/>
	<path d="M391.22,255.98c0,0.05-0.02,0.1-0.05,0.14c-0.03,0.04-0.07,0.08-0.12,0.11c-0.05,0.03-0.12,0.07-0.19,0.1
		c-0.08,0.03-0.17,0.06-0.27,0.09c-0.07,0.02-0.14,0.04-0.2,0.05c-0.06,0.01-0.12,0.02-0.17,0.03c-0.05,0.01-0.09,0.01-0.13,0
		c-0.04,0-0.08-0.01-0.11-0.02c-0.03-0.01-0.06-0.02-0.09-0.04c-0.02-0.02-0.05-0.04-0.07-0.08l-7.01-9.9
		c-0.06-0.08-0.1-0.15-0.11-0.21c-0.01-0.06,0-0.11,0.03-0.15c0.03-0.04,0.09-0.08,0.17-0.11c0.08-0.03,0.19-0.07,0.33-0.11
		c0.11-0.03,0.2-0.05,0.28-0.06c0.07-0.01,0.13-0.01,0.17,0c0.04,0.01,0.08,0.02,0.11,0.05c0.03,0.02,0.06,0.05,0.09,0.09l6.42,9.18
		l0.01,0l0.66-11.14c0-0.05,0-0.09,0.01-0.12c0.01-0.04,0.03-0.07,0.07-0.1c0.04-0.03,0.1-0.06,0.17-0.09
		c0.07-0.03,0.17-0.06,0.3-0.1c0.14-0.04,0.25-0.06,0.33-0.07s0.15,0,0.19,0.02c0.04,0.02,0.07,0.06,0.08,0.11
		c0.01,0.05,0.01,0.13,0,0.23L391.22,255.98z"/>
	<path d="M403.4,252.29c0.02,0.08,0.04,0.15,0.04,0.21c0,0.06,0,0.12-0.02,0.17c-0.02,0.05-0.04,0.09-0.07,0.12
		c-0.03,0.03-0.07,0.05-0.11,0.06l-5.41,1.5c-0.11,0.03-0.23,0.02-0.36-0.03c-0.14-0.05-0.23-0.18-0.29-0.4l-2.9-10.43
		c-0.06-0.21-0.04-0.38,0.05-0.49c0.09-0.11,0.19-0.18,0.3-0.21l5.33-1.48c0.04-0.01,0.08-0.01,0.12,0
		c0.04,0.01,0.08,0.03,0.12,0.07c0.03,0.03,0.07,0.08,0.1,0.14c0.03,0.06,0.06,0.13,0.08,0.21c0.02,0.08,0.04,0.15,0.04,0.21
		c0,0.06,0,0.12-0.01,0.16s-0.03,0.08-0.06,0.11c-0.03,0.03-0.07,0.05-0.11,0.06l-4.74,1.32l1.13,4.06l4.09-1.14
		c0.05-0.01,0.09-0.01,0.13,0c0.04,0.01,0.08,0.03,0.11,0.06c0.03,0.03,0.07,0.08,0.09,0.14c0.03,0.06,0.06,0.13,0.08,0.21
		c0.02,0.08,0.03,0.15,0.04,0.21c0,0.06,0,0.11-0.01,0.15c-0.01,0.04-0.04,0.08-0.07,0.11c-0.03,0.03-0.07,0.05-0.12,0.06
		l-4.09,1.14l1.28,4.61l4.82-1.34c0.04-0.01,0.08-0.01,0.13,0c0.04,0.01,0.08,0.03,0.12,0.06c0.04,0.03,0.07,0.08,0.1,0.14
		C403.35,252.13,403.38,252.2,403.4,252.29z"/>
	<path d="M411.08,247.31c0.14,0.51,0.18,1,0.1,1.45c-0.07,0.46-0.24,0.87-0.49,1.25c-0.26,0.37-0.59,0.7-1.01,0.98
		c-0.42,0.28-0.9,0.49-1.44,0.64c-0.37,0.1-0.73,0.17-1.07,0.19c-0.35,0.02-0.66,0.02-0.94,0c-0.28-0.02-0.52-0.06-0.73-0.11
		s-0.35-0.1-0.43-0.15c-0.08-0.05-0.15-0.12-0.21-0.2c-0.06-0.08-0.1-0.19-0.14-0.33c-0.03-0.1-0.04-0.19-0.05-0.26
		c-0.01-0.07,0-0.13,0-0.17c0.01-0.05,0.03-0.08,0.06-0.11c0.03-0.02,0.06-0.04,0.1-0.05c0.08-0.02,0.21,0,0.4,0.06
		c0.18,0.06,0.41,0.12,0.68,0.18c0.27,0.06,0.59,0.09,0.96,0.1c0.37,0.01,0.77-0.05,1.22-0.17c0.36-0.1,0.68-0.24,0.96-0.43
		c0.28-0.18,0.5-0.4,0.67-0.64c0.17-0.24,0.28-0.52,0.33-0.83c0.05-0.31,0.02-0.63-0.07-0.97c-0.1-0.36-0.26-0.64-0.49-0.86
		s-0.49-0.38-0.8-0.5c-0.31-0.12-0.64-0.22-1.01-0.29c-0.37-0.07-0.74-0.14-1.12-0.2c-0.38-0.06-0.76-0.14-1.13-0.24
		c-0.37-0.1-0.72-0.23-1.04-0.41c-0.32-0.18-0.61-0.41-0.85-0.7c-0.25-0.29-0.44-0.67-0.56-1.12c-0.12-0.45-0.15-0.87-0.09-1.27
		c0.06-0.4,0.21-0.76,0.43-1.09c0.22-0.33,0.52-0.61,0.89-0.86c0.37-0.24,0.8-0.43,1.29-0.57c0.24-0.07,0.5-0.11,0.76-0.13
		c0.26-0.02,0.52-0.03,0.76-0.01s0.47,0.04,0.67,0.08c0.2,0.04,0.34,0.09,0.41,0.13c0.07,0.04,0.12,0.07,0.14,0.1
		s0.04,0.05,0.07,0.09s0.05,0.08,0.07,0.14c0.02,0.05,0.04,0.12,0.07,0.21c0.02,0.08,0.04,0.15,0.04,0.21
		c0.01,0.07,0.01,0.12,0,0.17c0,0.05-0.02,0.09-0.04,0.12c-0.02,0.03-0.05,0.05-0.08,0.06c-0.07,0.02-0.18,0-0.34-0.05
		c-0.16-0.05-0.35-0.1-0.58-0.15c-0.23-0.05-0.5-0.08-0.8-0.09s-0.63,0.04-0.99,0.14c-0.35,0.1-0.65,0.23-0.88,0.4
		c-0.24,0.17-0.42,0.36-0.54,0.57c-0.13,0.21-0.2,0.44-0.23,0.68c-0.03,0.24,0,0.49,0.06,0.73c0.1,0.36,0.26,0.64,0.49,0.86
		c0.23,0.21,0.5,0.38,0.81,0.51c0.31,0.13,0.65,0.22,1.02,0.29c0.37,0.07,0.74,0.13,1.12,0.2c0.38,0.06,0.76,0.14,1.13,0.23
		c0.38,0.09,0.72,0.23,1.05,0.4c0.32,0.17,0.61,0.41,0.86,0.69C410.77,246.48,410.96,246.85,411.08,247.31z"/>
	<path d="M417.1,245.83c-0.09-0.32-0.13-0.64-0.13-0.96c0-0.32,0.06-0.65,0.17-0.99c0.11-0.34,0.29-0.68,0.53-1.04
		c0.24-0.36,0.55-0.74,0.93-1.15c-0.35-0.28-0.65-0.53-0.9-0.75c-0.25-0.22-0.46-0.44-0.64-0.64c-0.17-0.2-0.31-0.4-0.42-0.6
		c-0.11-0.2-0.19-0.4-0.25-0.61c-0.1-0.35-0.13-0.7-0.11-1.05c0.02-0.35,0.13-0.69,0.31-1.01c0.18-0.32,0.46-0.61,0.82-0.88
		c0.37-0.26,0.84-0.48,1.42-0.64c0.46-0.13,0.89-0.19,1.27-0.17c0.38,0.02,0.71,0.1,1,0.23s0.53,0.33,0.73,0.58
		c0.2,0.25,0.34,0.54,0.44,0.88c0.1,0.34,0.13,0.68,0.1,1c-0.03,0.32-0.13,0.65-0.31,0.99c-0.17,0.34-0.42,0.71-0.75,1.1
		c-0.32,0.39-0.73,0.83-1.23,1.31c0.3,0.21,0.62,0.43,0.96,0.66c0.34,0.23,0.7,0.45,1.07,0.67c0.37,0.22,0.74,0.44,1.12,0.65
		c0.38,0.21,0.76,0.41,1.13,0.6c0.09-0.22,0.16-0.47,0.21-0.73c0.05-0.26,0.08-0.54,0.09-0.82c0.01-0.28,0-0.57-0.03-0.85
		c-0.03-0.29-0.08-0.57-0.16-0.85l-0.1-0.35c-0.01-0.05-0.02-0.1-0.01-0.14c0-0.04,0.02-0.08,0.05-0.11
		c0.03-0.03,0.08-0.06,0.14-0.09c0.07-0.03,0.15-0.06,0.26-0.09c0.09-0.02,0.17-0.04,0.24-0.06s0.13-0.02,0.18-0.02
		c0.05,0.01,0.09,0.03,0.13,0.06s0.06,0.09,0.09,0.17l0.05,0.18c0.1,0.36,0.17,0.72,0.2,1.07c0.03,0.36,0.04,0.72,0.02,1.07
		c-0.02,0.35-0.07,0.7-0.15,1.03c-0.08,0.34-0.18,0.66-0.31,0.96c0.37,0.16,0.69,0.29,0.96,0.39c0.27,0.1,0.5,0.18,0.69,0.24
		c0.19,0.06,0.34,0.09,0.45,0.11c0.11,0.01,0.2,0.01,0.27-0.01c0.06-0.02,0.11-0.03,0.16-0.05c0.05-0.02,0.09-0.03,0.13-0.02
		c0.04,0.01,0.07,0.03,0.1,0.08c0.03,0.05,0.06,0.13,0.1,0.24c0.03,0.11,0.05,0.21,0.07,0.28c0.02,0.07,0.02,0.13,0.02,0.17
		c0,0.04-0.02,0.07-0.04,0.11c-0.02,0.03-0.07,0.07-0.15,0.11c-0.07,0.04-0.19,0.08-0.34,0.12c-0.11,0.03-0.25,0.05-0.4,0.04
		c-0.16,0-0.35-0.04-0.57-0.1c-0.22-0.06-0.49-0.15-0.81-0.27c-0.31-0.12-0.68-0.28-1.11-0.48c-0.18,0.28-0.38,0.55-0.59,0.8
		c-0.21,0.26-0.46,0.49-0.72,0.71c-0.27,0.22-0.56,0.41-0.88,0.58c-0.32,0.17-0.68,0.31-1.08,0.42c-0.37,0.1-0.72,0.17-1.06,0.19
		c-0.34,0.02-0.66,0.01-0.96-0.04c-0.3-0.05-0.58-0.14-0.83-0.26s-0.48-0.28-0.69-0.47c-0.2-0.19-0.38-0.41-0.53-0.66
		C417.31,246.42,417.19,246.14,417.1,245.83z M417.49,238.66c0.05,0.18,0.12,0.35,0.22,0.52c0.1,0.17,0.22,0.35,0.38,0.52
		c0.15,0.17,0.34,0.36,0.55,0.55c0.21,0.2,0.46,0.41,0.74,0.64c0.41-0.41,0.74-0.77,1.01-1.09c0.27-0.32,0.47-0.61,0.61-0.88
		c0.14-0.27,0.23-0.52,0.26-0.76c0.03-0.24,0.01-0.48-0.05-0.72c-0.05-0.19-0.14-0.36-0.26-0.52c-0.12-0.16-0.27-0.28-0.46-0.38
		s-0.41-0.15-0.66-0.17c-0.25-0.02-0.55,0.02-0.87,0.11c-0.35,0.1-0.63,0.23-0.85,0.39c-0.22,0.16-0.38,0.34-0.49,0.54
		c-0.11,0.2-0.17,0.41-0.19,0.62C417.41,238.24,417.43,238.45,417.49,238.66z M418.2,245.34c0.09,0.34,0.24,0.63,0.42,0.88
		c0.19,0.25,0.42,0.45,0.69,0.59c0.27,0.14,0.59,0.23,0.95,0.25c0.36,0.02,0.75-0.02,1.17-0.14c0.29-0.08,0.55-0.19,0.79-0.32
		c0.24-0.13,0.47-0.28,0.68-0.45c0.21-0.17,0.4-0.36,0.57-0.56c0.17-0.2,0.32-0.41,0.45-0.63c-0.41-0.2-0.83-0.41-1.24-0.63
		c-0.41-0.22-0.81-0.45-1.21-0.69c-0.39-0.23-0.77-0.47-1.14-0.71c-0.37-0.24-0.71-0.48-1.04-0.71c-0.29,0.32-0.52,0.62-0.7,0.89
		c-0.17,0.28-0.3,0.54-0.38,0.79c-0.08,0.25-0.12,0.5-0.12,0.73C418.1,244.88,418.13,245.11,418.2,245.34z"/>
	<path d="M446.94,240.53c0.01,0.04,0.01,0.07,0,0.11c-0.01,0.03-0.04,0.07-0.08,0.1c-0.04,0.03-0.09,0.06-0.16,0.09
		c-0.07,0.03-0.15,0.06-0.26,0.09c-0.09,0.03-0.18,0.04-0.25,0.05c-0.08,0.01-0.14,0.01-0.18,0c-0.05-0.01-0.08-0.02-0.11-0.05
		c-0.03-0.03-0.04-0.06-0.05-0.09l-2.89-10.42l-0.02,0l-1.64,11.75c0,0.03-0.02,0.05-0.04,0.08c-0.02,0.03-0.04,0.06-0.08,0.08
		c-0.04,0.03-0.08,0.05-0.14,0.08c-0.05,0.02-0.12,0.05-0.2,0.07c-0.08,0.02-0.16,0.04-0.22,0.05c-0.06,0.01-0.12,0.01-0.16,0
		s-0.08-0.01-0.11-0.03c-0.03-0.01-0.05-0.03-0.06-0.05l-7.24-9.29l-0.01,0l2.89,10.42c0.01,0.04,0.01,0.07,0,0.11
		c-0.01,0.03-0.03,0.07-0.07,0.1c-0.04,0.03-0.09,0.06-0.16,0.09s-0.15,0.06-0.27,0.09c-0.1,0.03-0.19,0.05-0.26,0.05
		c-0.07,0.01-0.13,0.01-0.18,0c-0.05-0.01-0.08-0.02-0.11-0.05c-0.02-0.03-0.04-0.06-0.05-0.09l-3-10.82
		c-0.06-0.21-0.04-0.38,0.05-0.49c0.09-0.11,0.19-0.18,0.3-0.21l0.59-0.16c0.15-0.04,0.29-0.06,0.41-0.06
		c0.12,0,0.23,0.02,0.34,0.06c0.1,0.04,0.2,0.09,0.28,0.17c0.08,0.07,0.17,0.16,0.25,0.26l6.36,8.13l0.04-0.01l1.44-10.25
		c0.02-0.16,0.05-0.3,0.09-0.42c0.04-0.12,0.09-0.22,0.15-0.3c0.06-0.08,0.13-0.14,0.21-0.19c0.08-0.05,0.17-0.09,0.27-0.11
		l0.65-0.18c0.05-0.02,0.11-0.02,0.18-0.02c0.06,0,0.13,0.02,0.19,0.05c0.06,0.03,0.12,0.08,0.17,0.14
		c0.05,0.06,0.09,0.15,0.12,0.25L446.94,240.53z"/>
	<path d="M458.03,231.27c0.26,0.92,0.38,1.79,0.38,2.59c0,0.81-0.14,1.53-0.42,2.18c-0.28,0.64-0.7,1.2-1.26,1.66
		c-0.56,0.46-1.27,0.82-2.13,1.05c-0.86,0.24-1.63,0.31-2.32,0.21c-0.69-0.1-1.31-0.35-1.84-0.74c-0.54-0.39-1-0.93-1.39-1.6
		c-0.39-0.67-0.71-1.47-0.96-2.38c-0.25-0.91-0.38-1.76-0.37-2.55c0-0.79,0.15-1.51,0.43-2.15c0.28-0.64,0.7-1.19,1.26-1.65
		s1.27-0.81,2.14-1.05c0.84-0.23,1.6-0.3,2.29-0.2s1.3,0.34,1.84,0.73c0.54,0.39,1.01,0.91,1.4,1.57
		C457.46,229.6,457.78,230.38,458.03,231.27z M456.89,231.7c-0.19-0.68-0.43-1.31-0.73-1.87c-0.29-0.56-0.65-1.02-1.07-1.39
		c-0.42-0.36-0.91-0.6-1.46-0.72c-0.56-0.12-1.2-0.08-1.92,0.12c-0.71,0.2-1.28,0.5-1.7,0.9c-0.42,0.4-0.72,0.87-0.9,1.4
		c-0.18,0.53-0.26,1.11-0.23,1.75c0.03,0.63,0.14,1.28,0.32,1.94c0.2,0.7,0.44,1.34,0.73,1.91c0.29,0.57,0.64,1.04,1.06,1.4
		c0.42,0.37,0.9,0.61,1.46,0.73c0.56,0.12,1.2,0.07,1.94-0.13c0.73-0.2,1.3-0.51,1.72-0.91c0.42-0.41,0.72-0.88,0.9-1.42
		c0.18-0.54,0.25-1.13,0.21-1.76C457.18,233,457.08,232.36,456.89,231.7z"/>
	<path d="M469.52,234.24c0.01,0.04,0.01,0.08,0.01,0.11c-0.01,0.03-0.03,0.07-0.06,0.1c-0.04,0.03-0.09,0.06-0.16,0.1
		c-0.07,0.03-0.16,0.06-0.28,0.1c-0.1,0.03-0.19,0.05-0.26,0.06c-0.07,0.01-0.13,0.01-0.19-0.01c-0.05-0.01-0.1-0.04-0.15-0.08
		c-0.04-0.04-0.08-0.09-0.13-0.15l-1.86-2.51c-0.21-0.28-0.43-0.54-0.65-0.78c-0.22-0.24-0.46-0.43-0.72-0.58
		c-0.26-0.15-0.55-0.24-0.87-0.28c-0.32-0.04-0.68,0-1.08,0.11l-1.2,0.33l1.45,5.21c0.01,0.04,0.01,0.07,0,0.11
		c-0.01,0.03-0.03,0.07-0.07,0.1c-0.04,0.03-0.09,0.06-0.15,0.09c-0.07,0.03-0.15,0.06-0.26,0.09c-0.1,0.03-0.19,0.05-0.26,0.05
		c-0.07,0.01-0.14,0.01-0.18,0c-0.05-0.01-0.08-0.02-0.11-0.05c-0.03-0.03-0.04-0.06-0.05-0.09l-3-10.82
		c-0.06-0.21-0.04-0.38,0.05-0.49c0.09-0.11,0.19-0.18,0.3-0.21l2.17-0.6c0.29-0.08,0.53-0.14,0.72-0.18
		c0.19-0.04,0.37-0.06,0.53-0.08c0.46-0.04,0.88-0.03,1.26,0.06c0.38,0.08,0.71,0.22,0.99,0.41c0.29,0.19,0.52,0.44,0.72,0.72
		c0.19,0.29,0.34,0.62,0.44,0.99c0.11,0.38,0.15,0.74,0.12,1.07c-0.02,0.33-0.1,0.64-0.24,0.92c-0.13,0.28-0.31,0.55-0.54,0.79
		c-0.23,0.24-0.49,0.47-0.79,0.67c0.22,0.03,0.43,0.1,0.62,0.18c0.19,0.09,0.38,0.2,0.57,0.35c0.18,0.15,0.37,0.32,0.56,0.53
		c0.19,0.21,0.38,0.44,0.58,0.71l1.83,2.4c0.14,0.19,0.22,0.32,0.27,0.39C469.49,234.15,469.51,234.21,469.52,234.24z
		 M465.31,226.51c-0.14-0.49-0.36-0.88-0.68-1.16c-0.32-0.28-0.75-0.43-1.31-0.43c-0.19,0-0.38,0.02-0.59,0.05
		c-0.21,0.04-0.48,0.1-0.8,0.19l-1.43,0.4l1.18,4.24l1.66-0.46c0.45-0.12,0.82-0.29,1.11-0.48c0.29-0.2,0.52-0.42,0.67-0.67
		s0.25-0.52,0.28-0.8S465.39,226.81,465.31,226.51z"/>
	<path d="M478.14,231.54c0.02,0.08,0.04,0.15,0.04,0.21s0,0.12-0.02,0.17c-0.02,0.05-0.04,0.09-0.07,0.12
		c-0.03,0.03-0.07,0.05-0.11,0.06l-5.41,1.5c-0.11,0.03-0.23,0.02-0.36-0.03c-0.14-0.05-0.23-0.18-0.29-0.4l-2.9-10.43
		c-0.06-0.21-0.04-0.38,0.05-0.49c0.09-0.11,0.19-0.18,0.3-0.21l5.33-1.48c0.04-0.01,0.08-0.01,0.12,0
		c0.04,0.01,0.08,0.03,0.12,0.07c0.03,0.03,0.07,0.08,0.1,0.14c0.03,0.06,0.06,0.13,0.08,0.21c0.02,0.08,0.04,0.15,0.04,0.21
		c0,0.06,0,0.12-0.01,0.16c-0.01,0.05-0.03,0.08-0.06,0.11c-0.03,0.03-0.07,0.05-0.11,0.06l-4.74,1.32l1.13,4.06l4.09-1.14
		c0.05-0.01,0.09-0.01,0.13,0c0.04,0.01,0.08,0.03,0.11,0.06c0.03,0.03,0.07,0.08,0.1,0.14c0.03,0.06,0.05,0.13,0.08,0.21
		c0.02,0.08,0.03,0.15,0.04,0.21c0,0.06,0,0.11-0.01,0.15c-0.01,0.04-0.04,0.08-0.07,0.11c-0.03,0.03-0.07,0.05-0.12,0.06
		l-4.09,1.14l1.28,4.61l4.82-1.34c0.04-0.01,0.08-0.01,0.13,0c0.04,0.01,0.08,0.03,0.12,0.06c0.04,0.03,0.07,0.08,0.1,0.14
		C478.09,231.39,478.12,231.46,478.14,231.54z"/>
</g>
<g>
	
		<text transform="matrix(0.9702 -0.2423 0.2423 0.9702 -380.9064 -33.0541)" class="st0" style="font-family:'BrushScriptMT'; font-size:64.3723px;">Cuttingwala</text>
	<path class="st0" d="M-203.7-197.44c-8.61,0.44-17.23,0.74-24.65,5.98c3-0.97,5.99-2.04,9.21-2.27c-4.26,2-8.37,4.13-10.4,8.76
		c3.83-3.7,8.47-5.89,13.47-7.45c3.78-1.18,7.7-1.63,11.57-2.34c2.55-0.46,5.07-1.06,7.5-2.01c1.45-0.57,2.85-1.22,4.08-2.66
		c-0.11,2.41-1.17,4-2.75,5.3c-1.5,1.24-3.31,1.93-5.08,2.65c-4.46,1.82-8.94,3.61-13.4,5.43c-1.54,0.62-3.01,1.39-4.41,2.3
		c0.44-1.78,1.5-2.79,7.21-6.79c-5.73,0.8-13.34,6.61-14.78,13.52c5.31-4.56,11.43-5.37,17.95-4.53c-3.01,0.64-6.06,1.18-8.87,3.34
		c6.77-1.69,13.21-1.99,19.67,0.27c-2.9-3.47-8.21-5.42-17.44-6.33c10.61-2.73,20.6-2.22,30.48,1.66c-2.81-3.05-9.51-5.09-18.21-5.6
		c2.29-1.44,8.53-1.76,13.54-0.7c-1.03-1.02-2.7-1.69-5.52-2.22c0.88-0.6,2.75-0.71,4.64-0.33c3.28,0.66,6.07,2.34,8.78,4.18
		c1.67,1.14,3.31,2.32,4.96,3.49c1.59,1.12,3.24,2.11,5.07,2.88c-2.13,0.18-4.22,0.3-6.66-0.16c1.44,1.57,2.64,2.95,3.58,4.51
		c5.48,9.11,5.29,18.38,0.72,27.75c-1.67,3.42-3.63,6.72-6.22,9.46c-3.28,3.48-3.54,7.41-2.82,11.7c0.02,0.1,0,0.2,0,0.42
		c-0.99-0.39-1.32-1.27-1.62-2.07c-0.38-1.01-0.6-2.09-0.84-3.15c-0.49-2.16-0.67-2.31-2.93-2.26c-0.1-0.67,0.62-1.05,0.62-1.7
		c-0.49-0.26-0.88,0.16-1.31,0.22c-0.4,0.06-0.78,0.19-1.32,0.33c2.99-3.76,4.5-7.93,4.92-12.52c0.36-3.9-1.36-6.77-4.5-7.54
		c-3.91-0.96-6.95,1.4-6.96,5.41c-0.01,3.28,0.64,6.5,0.87,9.76c0.21,2.96,0.25,5.91-0.29,8.84c-1.02,5.55-4.28,9.53-9.06,12.2
		c-6.45,3.6-13.18,6.58-20.6,7.54c-2.28,0.29-4.56,0.06-6.7-0.91c-2.3-1.04-2.82-2.16-2.14-4.56c0.69-2.42,0.91-4.91,0.81-7.4
		c-0.05-1.26,0.21-1.84,1.57-1.56c0.53,0.11,1.09,0.06,1.66,0.09c-0.14,0.75-1.74,0.57-0.91,1.77c0.66,0.95,1.37,1.53,2.58,0.99
		c1.8-0.8,3.6-1.6,5.42-2.34c0.68-0.28,0.66-0.62,0.41-1.19c-0.9-2.08-2.47-3.16-4.73-3.14c-2.18,0.02-4.33-0.08-6.59-1.32
		c0.34,0.63,0.52,0.96,0.71,1.32c-1.74-0.29-3.1-1.72-3.08-3.32c0.03-1.7,1.21-3,1.67-4.59c0.69,0.63,0.26,1.42,0.46,2.11
		c0.9-0.05,1.27-0.8,1.99-1.52c0.87,3.24,3.41,3.77,6.15,4c2.08,0.17,3.36,1.42,4.25,3.63c0.08-0.87,0.13-1.34,0.2-2.06
		c0.92,1.53,1.09,3.03,1.44,4.54c1.69-0.28,2.76-1.23,3.31-2.81c0.07-0.2,0.15-0.39,0.23-0.58c1.2-2.91,1.2-2.91-1.46-4.47
		c-0.17-0.1-0.39-0.16-0.39-0.53c2.34-0.43,4.67-1,6.91-1.93c2.49-1.03,4.03-2.75,4.6-5.43c0.77-3.6,1.01-7.21,0.24-10.81
		c-0.9-4.18-3.68-6.85-7.42-8.64c-1.08-0.52-2.42-0.93-1.1-2.52c0.11-0.13,0.14-0.47,0.05-0.58c-1.36-1.66,0.18-1.37,1.01-1.48
		c2.48-0.31,4.96-0.23,7.47-0.1c-3.23-1.54-6.76-1.97-10.36-2.6c1.7-0.91,4.28-1.47,7.57-1.55c2.52-0.06,5.03-0.01,7.56-0.11
		c-3.04-1.06-6.2-1.53-9.38-1.74c-7.47-0.5-14.82,0.22-21.99,2.42c-1.08,0.33-1.66,0.09-2.27-0.81c-5.16-7.58-1.81-19.96,6.66-23.28
		c3.47-1.36,7.02-2.16,10.7-2.52c3.52-0.34,7.05-0.26,10.58-0.12C-206.47-197.76-205.08-197.57-203.7-197.44z"/>
	<g>
		<path class="st0" d="M-330.65-25.93c30.87,10.84,60.8,20.54,93.04,18.55c3.72-0.23,4.26,1.22,3.38,4.16
			c-0.61,2.05-1.32,4.08-2.16,6.04c-1.75,4.07-4.43,6.3-9.34,5.6c-30.85-4.4-61.31-10.29-90.3-22.23c-3.57-1.47-7.03-3.25-9.94-5.85
			c-1.49-1.33-2.99-1.28-4.77-0.81c-4.99,1.32-10.07,2.19-15.23,2.53c-1.04,0.07-2.5,0.83-2.79-0.88c-0.22-1.26,0.68-2.02,1.95-2.41
			c4.23-1.32,8.41-2.79,12.65-4.09c1.94-0.59,3.08-1.09,2.71-3.74c-0.53-3.86,1.07-5.05,4.44-3.23c4.76,2.58,9.03,1.8,13.85,0.19
			c23.73-7.9,47.56-15.52,71.37-23.21c2.39-0.77,5.09-2.31,7.23,0.04c2.28,2.5,1.84,5.89,1.89,9.03c0.03,1.66-1.46,1.6-2.42,1.93
			c-14.6,5.01-29.23,9.94-43.84,14.93c-1.77,0.61-3.47,1.16-3.79-1.48c-0.2-1.64-1.18-1.33-2.11-1.08
			C-312.95-29.74-321.44-29.04-330.65-25.93z"/>
		<path class="st1" d="M-342.53-22.72c-0.34-0.92-0.62-1.95,0.38-2.59c0.9-0.58,1.89-0.38,2.55,0.54c0.57,0.8,0.4,1.69-0.3,2.25
			C-340.73-21.86-341.69-21.84-342.53-22.72z"/>
	</g>
	<g>
		<g>
			<path class="st2" d="M-307.04-32.41c-0.18,0.18-0.59,0.49-1.2,0.69c-1.35,0.45-2.54-0.17-3-1.54c-0.46-1.38,0.14-2.7,1.61-3.19
				c0.48-0.16,0.95-0.18,1.21-0.14l0.03,0.69c-0.24-0.04-0.58-0.05-1.02,0.1c-1.02,0.34-1.32,1.29-1.01,2.22
				c0.35,1.04,1.23,1.45,2.12,1.15c0.46-0.15,0.73-0.37,0.92-0.55L-307.04-32.41z"/>
			<path class="st2" d="M-302.7-35.04c0.16,0.47,0.31,0.87,0.45,1.21l-0.72,0.24l-0.29-0.72l-0.02,0.01
				c-0.09,0.43-0.4,1.06-1.2,1.33c-0.7,0.23-1.67,0.12-2.2-1.44l-0.88-2.61l0.81-0.27l0.83,2.47c0.29,0.85,0.75,1.34,1.48,1.1
				c0.54-0.18,0.8-0.69,0.83-1.11c0-0.13-0.01-0.29-0.07-0.44l-0.92-2.74l0.81-0.27L-302.7-35.04z"/>
			<path class="st2" d="M-301.88-40.36l0.43,1.29l1.17-0.39l0.21,0.62l-1.17,0.39l0.81,2.41c0.19,0.56,0.45,0.82,0.91,0.67
				c0.21-0.07,0.36-0.15,0.45-0.22l0.24,0.61c-0.14,0.11-0.37,0.25-0.69,0.35c-0.37,0.13-0.72,0.11-0.99-0.05
				c-0.31-0.17-0.53-0.54-0.71-1.06l-0.82-2.44l-0.69,0.23l-0.21-0.62l0.69-0.23l-0.36-1.08L-301.88-40.36z"/>
			<path class="st2" d="M-298.82-41.38l0.43,1.29l1.17-0.39l0.21,0.62l-1.17,0.39l0.81,2.41c0.19,0.56,0.45,0.82,0.91,0.67
				c0.21-0.07,0.36-0.15,0.45-0.22l0.24,0.61c-0.14,0.11-0.37,0.25-0.69,0.35c-0.37,0.13-0.73,0.11-0.99-0.05
				c-0.31-0.17-0.53-0.54-0.71-1.06l-0.82-2.44l-0.69,0.23l-0.21-0.62l0.69-0.23l-0.36-1.08L-298.82-41.38z"/>
			<path class="st2" d="M-295.82-42.36c0.09,0.28-0.02,0.57-0.35,0.68c-0.29,0.1-0.57-0.06-0.66-0.34
				c-0.09-0.28,0.04-0.58,0.34-0.67C-296.18-42.8-295.91-42.64-295.82-42.36z M-294.81-36.32l-1.5-4.47l0.81-0.27l1.5,4.47
				L-294.81-36.32z"/>
			<path class="st2" d="M-293.73-40.31c-0.16-0.47-0.29-0.83-0.44-1.2l0.72-0.24l0.29,0.72l0.02-0.01c0.08-0.49,0.46-1.08,1.2-1.33
				c0.61-0.21,1.7-0.16,2.21,1.38l0.89,2.67l-0.81,0.27l-0.86-2.58c-0.24-0.72-0.72-1.24-1.48-0.98c-0.53,0.18-0.82,0.7-0.82,1.2
				c0,0.11,0.03,0.26,0.07,0.4l0.9,2.7l-0.81,0.27L-293.73-40.31z"/>
			<path class="st2" d="M-285.14-44.52c0.08,0.33,0.19,0.69,0.37,1.24l0.87,2.6c0.35,1.03,0.34,1.73,0.05,2.26
				c-0.3,0.55-0.88,0.89-1.45,1.08c-0.54,0.18-1.17,0.25-1.62,0.13l-0.01-0.69c0.36,0.09,0.88,0.11,1.44-0.08
				c0.83-0.28,1.29-0.92,0.92-2.05l-0.17-0.5l-0.02,0.01c-0.1,0.5-0.48,1-1.17,1.23c-1.11,0.37-2.22-0.31-2.64-1.55
				c-0.51-1.52,0.19-2.7,1.23-3.05c0.78-0.26,1.33,0,1.65,0.3l0.02-0.01l-0.19-0.68L-285.14-44.52z M-285.4-42.48
				c-0.04-0.13-0.1-0.25-0.17-0.35c-0.31-0.42-0.83-0.68-1.43-0.48c-0.78,0.26-1.11,1.1-0.77,2.14c0.29,0.88,0.99,1.46,1.86,1.17
				c0.5-0.17,0.85-0.64,0.85-1.22c0-0.15-0.03-0.31-0.08-0.45L-285.4-42.48z"/>
			<path class="st2" d="M-283.51-45.07l1.36,2.07c0.3,0.46,0.57,0.89,0.81,1.32l0.02-0.01c-0.05-0.49-0.07-1.02-0.08-1.56
				l-0.03-2.52l0.68-0.23l1.44,2c0.34,0.48,0.63,0.91,0.88,1.33l0.02-0.01c-0.07-0.48-0.11-0.99-0.14-1.57l-0.11-2.46l0.8-0.27
				l0.05,4.96l-0.74,0.25l-1.39-1.91c-0.33-0.45-0.61-0.85-0.89-1.34l-0.02,0.01c0.07,0.58,0.08,1.09,0.09,1.62l-0.01,2.37
				l-0.74,0.25l-2.84-4.02L-283.51-45.07z"/>
			<path class="st2" d="M-273.05-43.6l-0.26-0.54l-0.02,0.01c-0.13,0.43-0.5,0.91-1.14,1.13c-0.9,0.3-1.58-0.18-1.79-0.83
				c-0.36-1.08,0.4-2,2.13-2.56l-0.03-0.1c-0.12-0.36-0.45-1-1.36-0.69c-0.42,0.14-0.81,0.41-1.05,0.72l-0.37-0.48
				c0.29-0.36,0.78-0.7,1.34-0.88c1.37-0.46,2.01,0.37,2.31,1.26l0.56,1.67c0.13,0.38,0.27,0.76,0.42,1.05L-273.05-43.6z
				 M-273.94-45.84c-0.89,0.28-1.84,0.77-1.55,1.64c0.18,0.53,0.61,0.66,1.02,0.52c0.59-0.2,0.84-0.69,0.84-1.11
				c0-0.1-0.02-0.19-0.05-0.27L-273.94-45.84z"/>
			<path class="st2" d="M-273.26-50.83l0.81-0.27l2.2,6.57l-0.81,0.27L-273.26-50.83z"/>
			<path class="st2" d="M-266.4-45.82l-0.26-0.54l-0.02,0.01c-0.13,0.43-0.5,0.91-1.15,1.13c-0.9,0.3-1.58-0.19-1.79-0.83
				c-0.36-1.08,0.4-2,2.13-2.56l-0.03-0.1c-0.12-0.36-0.45-1-1.36-0.69c-0.42,0.14-0.81,0.41-1.05,0.72l-0.37-0.48
				c0.29-0.36,0.78-0.7,1.34-0.89c1.37-0.46,2.01,0.37,2.31,1.26l0.56,1.67c0.13,0.38,0.27,0.76,0.42,1.05L-266.4-45.82z
				 M-267.3-48.06c-0.89,0.28-1.84,0.77-1.55,1.64c0.18,0.53,0.61,0.66,1.02,0.52c0.59-0.2,0.84-0.69,0.84-1.11
				c0-0.1-0.02-0.19-0.05-0.27L-267.3-48.06z"/>
			<path class="st2" d="M-264.78-46.9c-0.11-0.34,0.03-0.66,0.36-0.77c0.33-0.11,0.62,0.06,0.74,0.4c0.11,0.33-0.02,0.65-0.36,0.76
				C-264.36-46.39-264.67-46.57-264.78-46.9z"/>
			<path class="st2" d="M-263.52-53.16c0.09,0.28-0.02,0.57-0.35,0.68c-0.29,0.1-0.57-0.06-0.66-0.34
				c-0.09-0.28,0.04-0.58,0.34-0.67C-263.89-53.6-263.62-53.44-263.52-53.16z M-262.51-47.12l-1.5-4.47l0.81-0.27l1.5,4.47
				L-262.51-47.12z"/>
			<path class="st2" d="M-261.44-51.11c-0.16-0.47-0.3-0.83-0.44-1.2l0.72-0.24l0.29,0.72l0.02-0.01c0.08-0.49,0.46-1.08,1.2-1.33
				c0.61-0.21,1.7-0.16,2.21,1.38l0.89,2.67l-0.81,0.27l-0.86-2.58c-0.24-0.72-0.72-1.24-1.48-0.98c-0.53,0.18-0.82,0.7-0.82,1.2
				c0,0.11,0.03,0.26,0.07,0.4l0.9,2.7l-0.81,0.27L-261.44-51.11z"/>
		</g>
	</g>
	
		<text transform="matrix(0.9636 -0.2674 0.2674 0.9636 -232.2598 -53.9908)" style="font-family:'Calibri-Light'; font-size:9.9517px;">HAIRCUT, SHAVES &amp; MORE</text>
</g>
</svg>
