<?xml version="1.0" encoding="utf-8"?>
<!-- Generator: Adobe Illustrator 23.0.1, SVG Export Plug-In . SVG Version: 6.00 Build 0)  -->
<svg version="1.1" id="Layer_1" xmlns="http://www.w3.org/2000/svg" xmlns:xlink="http://www.w3.org/1999/xlink" x="0px" y="0px"
	 viewBox="0 0 200 72" style="enable-background:new 0 0 200 72;" xml:space="preserve">
<style type="text/css">
	.st0{fill:#E94655;}
	.st1{fill:#F9C411;}
	.st2{fill:#40C0ED;}
	.st3{fill:#5BBB6A;}
	.st4{fill:#F9AF18;}
	.st5{fill:#4DB96A;}
	.st6{fill:#43B3E5;}
	.st7{fill:#FFFFFF;}
</style>
<g>
	<path d="M182.92,69.47H26.04c-7.22,0-13.08-5.86-13.08-13.08V16.48c0-7.22,5.86-13.08,13.08-13.08h156.88
		c7.22,0,13.08,5.86,13.08,13.08v39.91C196,63.62,190.14,69.47,182.92,69.47z"/>
	<g>
		<path class="st0" d="M34.77,46.49c-3.48,2.05-6.96,4.12-10.44,6.16C18.2,56.23,12.07,59.8,5.94,63.37
			c-0.07,0.04-0.13,0.11-0.19,0.17c-0.29,0-0.59,0-0.88,0c-0.55-0.47-0.71-1.06-0.69-1.78c0.05-1.87,0.03-3.75,0.04-5.62
			C4.34,55.7,4.69,55.42,5,55.11c3.97-3.98,7.95-7.94,11.92-11.93c2.44-2.43,4.9-4.85,7.29-7.33c0.08-0.03,0.16-0.03,0.24,0
			c3.17,3.25,6.42,6.43,9.62,9.66C34.35,45.8,34.74,46.02,34.77,46.49z"/>
		<path class="st1" d="M50.14,37.3c-0.22,0.22-0.41,0.51-0.67,0.66c-4.82,2.81-9.64,5.6-14.46,8.39c-0.17-0.58,0.3-0.86,0.62-1.14
			c0.67-0.59,0.89-1.29,0.88-2.17c-0.03-3.98-0.04-7.95,0-11.93c0.01-1.08-0.25-1.92-1.15-2.58c-0.33-0.24-0.88-0.44-0.73-1.06
			c4.49,2.55,8.99,5.1,13.47,7.66c0.72,0.41,1.57,0.68,2.03,1.46C50.14,36.83,50.14,37.06,50.14,37.3z"/>
		<path class="st2" d="M17.04,43.31c-3.05,3.07-6.09,6.14-9.14,9.2c-1.22,1.22-2.45,2.42-3.68,3.63c-0.02-3.87-0.04-7.73-0.06-11.6
			c-0.02-5.6,0.01-11.19-0.06-16.79C4.05,23.77,4,19.79,4.05,15.81c0.41-0.03,0.62,0.3,0.86,0.54c3.12,3.11,6.24,6.23,9.36,9.35
			c0.31,0.31,0.63,0.62,0.71,1.08c0.12,0.61,0.02,1.23,0.02,1.84c0.01,4.89,0,9.79,0,14.68c0,0.09-0.01,0.18,0,0.26
			c0.03,0.25-0.12,0.6,0.18,0.71c0.28,0.1,0.44-0.23,0.62-0.4c0.26-0.23,0.48-0.52,0.8-0.68C16.76,43.12,16.99,42.94,17.04,43.31z"
			/>
		<path class="st3" d="M14.75,26.53c-2.78-2.8-5.55-5.6-8.33-8.39c-0.78-0.79-1.58-1.56-2.37-2.33C4.03,14.63,4,13.46,4,12.29
			c0-1.49,0.78-1.94,2.1-1.19c2.67,1.52,5.34,3.05,8.01,4.58c4.14,2.37,8.29,4.74,12.43,7.11c0.19,0.11,0.45,0.16,0.53,0.42
			c-0.38,0.26-0.73,0.03-1.09-0.05c-0.77-0.18-0.9-0.11-0.93,0.67c-0.03,0.91-0.01,1.82-0.01,2.73c0,2.29,0.02,4.58-0.01,6.86
			c-0.01,0.81-0.02,1.67-0.81,2.21c-0.44,0.15-0.73-0.11-1-0.38c-2.67-2.65-5.33-5.32-7.99-7.99
			C15.02,27.05,14.88,26.79,14.75,26.53z"/>
		<path class="st4" d="M34.64,27.47c0.35,0.55,0.89,0.88,1.38,1.28c0.48,0.4,0.75,0.85,0.75,1.5c-0.02,4.51-0.01,9.02,0,13.52
			c0,0.48-0.16,0.82-0.49,1.16c-0.44,0.46-1.01,0.8-1.27,1.43c-0.08,0.04-0.16,0.09-0.24,0.13c-3.34-3.33-6.67-6.67-10.01-10
			c-0.17-0.17-0.34-0.32-0.35-0.59c-0.09-0.47,0.3-0.67,0.55-0.92c2.59-2.6,5.16-5.22,7.86-7.7c0.22-0.2,0.41-0.43,0.74-0.43
			C33.97,26.98,34.31,27.21,34.64,27.47z"/>
		<path class="st5" d="M33.56,26.86c-2.86,2.8-5.72,5.59-8.58,8.39c-0.21,0.2-0.38,0.43-0.58,0.65c-0.05,0-0.1,0.01-0.14,0.01
			c-0.3,0.05-0.41-0.09-0.38-0.37c0.98-0.36,0.85-1.26,0.87-1.99c0.05-3.25,0.02-6.5,0.02-9.75c0-1.26,0.07-1.31,1.29-0.91
			c0.33,0.11,0.67,0.21,1,0.31C29.24,24.42,31.4,25.64,33.56,26.86z"/>
		<path class="st6" d="M23.89,35.54c0.13,0.12,0.25,0.25,0.38,0.37c-0.05,0.13-0.06,0.29-0.15,0.38c-2.35,2.34-4.71,4.68-7.07,7.02
			c-0.71,0-0.86,0.73-1.34,1.04c-0.25,0.17-0.41,0.56-0.8,0.39c-0.37-0.16-0.16-0.52-0.16-0.77c-0.01-5.27-0.01-10.53-0.01-15.8
			c0-0.55,0.01-1.1,0.01-1.65c2.79,2.77,5.58,5.53,8.37,8.3C23.36,35.08,23.63,35.3,23.89,35.54z"/>
	</g>
	<g>
		<path class="st7" d="M64.96,21.9c0-3.78,2.4-6.03,5.47-6.03c1.64,0,2.76,0.72,3.49,1.46l-1.1,1.32c-0.58-0.57-1.26-1-2.33-1
			c-2.05,0-3.43,1.59-3.43,4.18c0,2.64,1.22,4.23,3.54,4.23c0.64,0,1.28-0.18,1.65-0.51v-2.49h-2.18v-1.68h4.01v5.1
			c-0.77,0.78-2.11,1.37-3.69,1.37C67.29,27.85,64.96,25.72,64.96,21.9z"/>
		<path class="st7" d="M76.66,16.08h6.95v1.72h-4.9v2.96h4.16v1.72h-4.16v3.42h5.08v1.72h-7.13V16.08z"/>
		<path class="st7" d="M88.5,17.8h-3.34v-1.72h8.72v1.72h-3.34v9.83H88.5V17.8z"/>
		<path class="st7" d="M99.35,16.08h2.05v11.56h-2.05V16.08z"/>
		<path class="st7" d="M106.67,17.8h-3.34v-1.72h8.72v1.72h-3.34v9.83h-2.05V17.8z"/>
		<path class="st7" d="M116.91,21.81c0-3.74,2.08-5.94,5.1-5.94s5.1,2.22,5.1,5.94c0,3.74-2.08,6.04-5.1,6.04
			S116.91,25.55,116.91,21.81z M124.99,21.81c0-2.59-1.17-4.16-2.99-4.16s-2.99,1.57-2.99,4.16c0,2.59,1.17,4.25,2.99,4.25
			S124.99,24.41,124.99,21.81z"/>
		<path class="st7" d="M129.42,16.08h2.11l3.59,6.5l1.19,2.47h0.07c-0.1-1.19-0.26-2.66-0.26-3.94v-5.02h1.95v11.56h-2.11
			l-3.59-6.51l-1.19-2.46h-0.07c0.1,1.22,0.26,2.62,0.26,3.9v5.06h-1.95V16.08z"/>
	</g>
	<g>
		<path class="st7" d="M65.15,46.48c0-4.94,3.28-7.81,7.26-7.81c2.16,0,3.7,0.92,4.7,1.93l-1.78,2.16
			c-0.74-0.68-1.54-1.19-2.81-1.19c-2.29,0-3.92,1.8-3.92,4.79c0,3.06,1.39,4.84,4.19,4.84c0.6,0,1.21-0.16,1.58-0.44V48.2h-2.47
			v-2.75h5.46v6.87c-1.03,1.01-2.84,1.8-4.92,1.8C68.35,54.12,65.15,51.5,65.15,46.48z"/>
		<path class="st7" d="M79.5,48.18c0-3.77,2.65-5.95,5.52-5.95c2.87,0,5.52,2.18,5.52,5.95c0,3.76-2.65,5.94-5.52,5.94
			C82.16,54.12,79.5,51.94,79.5,48.18z M87.11,48.18c0-1.96-0.69-3.24-2.08-3.24s-2.08,1.27-2.08,3.24s0.69,3.23,2.08,3.23
			S87.11,50.14,87.11,48.18z"/>
		<path class="st7" d="M92.19,48.18c0-3.77,2.65-5.95,5.52-5.95c2.87,0,5.52,2.18,5.52,5.95c0,3.76-2.65,5.94-5.52,5.94
			C94.85,54.12,92.19,51.94,92.19,48.18z M99.8,48.18c0-1.96-0.69-3.24-2.08-3.24s-2.08,1.27-2.08,3.24s0.69,3.23,2.08,3.23
			S99.8,50.14,99.8,48.18z"/>
		<path class="st7" d="M104.84,55.79c0-0.94,0.56-1.7,1.61-2.28v-0.09c-0.59-0.4-1.04-0.99-1.04-1.93c0-0.82,0.54-1.62,1.26-2.12
			v-0.09c-0.8-0.56-1.52-1.62-1.52-2.94c0-2.72,2.25-4.1,4.69-4.1c0.63,0,1.25,0.1,1.76,0.27h4.15v2.45h-1.82
			c0.21,0.34,0.38,0.9,0.38,1.5c0,2.61-1.99,3.81-4.46,3.81c-0.41,0-0.88-0.07-1.38-0.22c-0.28,0.24-0.39,0.44-0.39,0.84
			c0,0.56,0.46,0.83,1.7,0.83h1.84c2.78,0,4.33,0.85,4.33,2.88c0,2.36-2.46,4.07-6.35,4.07C106.95,58.67,104.84,57.81,104.84,55.79z
			 M112.72,55.17c0-0.72-0.61-0.88-1.73-0.88h-1.18c-0.78,0-1.22-0.05-1.59-0.15c-0.42,0.35-0.61,0.7-0.61,1.11
			c0,0.86,1,1.3,2.51,1.3C111.64,56.56,112.72,55.95,112.72,55.17z M111.4,46.33c0-1.21-0.66-1.84-1.55-1.84s-1.55,0.63-1.55,1.84
			c0,1.24,0.66,1.89,1.55,1.89S111.4,47.58,111.4,46.33z"/>
		<path class="st7" d="M117.75,50.32V37.83h3.36v12.63c0,0.72,0.33,0.95,0.61,0.95c0.13,0,0.22,0,0.41-0.05l0.4,2.48
			c-0.37,0.16-0.92,0.28-1.69,0.28C118.54,54.12,117.75,52.62,117.75,50.32z"/>
		<path class="st7" d="M123.63,48.18c0-3.68,2.62-5.95,5.35-5.95c3.23,0,4.83,2.35,4.83,5.44c0,0.61-0.08,1.21-0.14,1.49h-6.78
			c0.3,1.64,1.43,2.4,2.94,2.4c0.86,0,1.63-0.26,2.45-0.74l1.11,2.03c-1.16,0.8-2.68,1.28-4.02,1.28
			C126.13,54.12,123.63,51.93,123.63,48.18z M130.94,46.94c0-1.25-0.54-2.14-1.88-2.14c-1.06,0-1.98,0.71-2.21,2.14H130.94z"/>
		<path class="st7" d="M140.98,38.95h5.12c3.28,0,5.92,1.17,5.92,4.79c0,3.5-2.67,5.05-5.83,5.05h-1.84v5.05h-3.37V38.95z
			 M145.99,46.12c1.85,0,2.73-0.83,2.73-2.38c0-1.56-1-2.12-2.82-2.12h-1.55v4.5H145.99z"/>
		<path class="st7" d="M154.33,50.32V37.83h3.36v12.63c0,0.72,0.33,0.95,0.61,0.95c0.13,0,0.22,0,0.41-0.05l0.4,2.48
			c-0.37,0.16-0.92,0.28-1.69,0.28C155.12,54.12,154.33,52.62,154.33,50.32z"/>
		<path class="st7" d="M160.34,50.7c0-2.39,1.9-3.68,6.39-4.16c-0.07-0.99-0.56-1.64-1.79-1.64c-0.95,0-1.9,0.4-3,1.02l-1.19-2.21
			c1.44-0.88,3.06-1.49,4.84-1.49c2.9,0,4.5,1.66,4.5,5.13v6.48h-2.74l-0.24-1.16h-0.08c-0.95,0.84-2.02,1.44-3.3,1.44
			C161.66,54.12,160.34,52.61,160.34,50.7z M166.73,50.55v-1.98c-2.39,0.32-3.17,1-3.17,1.86c0,0.73,0.5,1.09,1.3,1.09
			C165.62,51.52,166.13,51.14,166.73,50.55z"/>
		<path class="st7" d="M172.57,58.05l0.6-2.56c0.21,0.05,0.52,0.15,0.76,0.15c1.11,0,1.69-0.61,1.98-1.49l0.17-0.59l-4.38-11.05
			h3.38l1.62,4.88c0.33,1.03,0.6,2.1,0.9,3.21h0.09c0.25-1.07,0.51-2.15,0.79-3.21l1.38-4.88h3.22l-3.94,11.46
			c-1.08,2.84-2.29,4.31-4.95,4.31C173.48,58.28,173.03,58.19,172.57,58.05z"/>
	</g>
</g>
</svg>
